<?xml version="1.0" standalone="no"?>
<!DOCTYPE svg PUBLIC "-//W3C//DTD SVG 1.1//EN" "http://www.w3.org/Graphics/SVG/1.1/DTD/svg11.dtd" >
<svg>
<metadata>
Created by FontForge 20090914 at Wed May 16 13:02:05 2018
 By www-data
&#194;&#169; Lukasz Dziedzic for FSI; PDF-x uazero;
</metadata>
<defs>
<font id="ClanPro-Bold" horiz-adv-x="641" >
  <font-face 
    font-family="ClanPro"
    font-weight="700"
    font-stretch="normal"
    units-per-em="1000"
    panose-1="2 0 5 0 4 0 0 2 0 4"
    ascent="750"
    descent="-250"
    x-height="606"
    cap-height="750"
    bbox="-129 -204.998 1030 914"
    underline-thickness="53"
    underline-position="-82"
    unicode-range="U+0020-U+FB02"
  />
<missing-glyph horiz-adv-x="629" 
d="M62 750h505v-750h-505v750zM473 94v562h-317v-562h317z" />
    <glyph glyph-name=".notdef" horiz-adv-x="629" 
d="M62 750h505v-750h-505v750zM473 94v562h-317v-562h317z" />
    <glyph glyph-name="space" unicode=" " horiz-adv-x="500" 
 />
    <glyph glyph-name="space" unicode="&#xa0;" horiz-adv-x="500" 
 />
    <glyph glyph-name="exclam" unicode="!" horiz-adv-x="303" 
d="M91 218l-24 532h168l-23 -532h-121zM241 66c0 -24 -6.66699 -43 -20 -57s-35.666 -21 -66.999 -21c-30 0 -52 6 -66 18s-21 32 -21 60c0 25.333 7 44.833 21 58.5s36 20.5 66 20.5c31.333 0 53.666 -6.83301 66.999 -20.5s20 -33.167 20 -58.5z" />
    <glyph glyph-name="quotedbl" unicode="&#x22;" horiz-adv-x="430" 
d="M399 766l-27 -273h-100l-22 273h149zM196 766l-27 -273h-100l-22 273h149z" />
    <glyph glyph-name="numbersign" unicode="#" horiz-adv-x="632" 
d="M138 303l23 140h-123v118h140l28 189h124l-29 -189h85l28 189h122l-29 -189h87v-118h-103l-22 -140h125v-120h-143l-27 -183h-121l28 183h-87l-27 -183h-124l27 183h-83v120h101zM262 303h85l23 140h-85z" />
    <glyph glyph-name="parenleft" unicode="(" horiz-adv-x="357" 
d="M355 779c-44 -64.667 -76.333 -135.667 -97 -213s-31 -157.333 -31 -240c0 -83.333 10.667 -163.5 32 -240.5s53 -147.5 95 -211.5l-116 -10c-52 57.333 -91.667 125.833 -119 205.5s-41 165.167 -41 256.5c0 93.333 13.333 178.833 40 256.5s66.667 146.5 120 206.5z
" />
    <glyph glyph-name="parenright" unicode=")" horiz-adv-x="357" 
d="M120 789c52.667 -60 92.5 -128.833 119.5 -206.5s40.5 -163.167 40.5 -256.5c0 -91.333 -13.667 -176.833 -41 -256.5s-67 -148.167 -119 -205.5l-117 10c42.667 64 74.5 134.5 95.5 211.5s31.5 157.167 31.5 240.5c0 82.667 -10.333 162.667 -31 240
s-52.667 148.333 -96 213z" />
    <glyph glyph-name="comma" unicode="," horiz-adv-x="265" 
d="M131 158c30.667 0 53.166 -8.33301 67.499 -25s21.5 -39.667 21.5 -69c0 -13.333 -2.66699 -29 -8 -47s-12.333 -36.667 -21 -56s-18.5 -38.333 -29.5 -57s-21.833 -35 -32.5 -49l-56 14l26 121c-13.333 6 -25.666 16 -36.999 30s-17 30.333 -17 49
c0 25.333 6.5 46.5 19.5 63.5s35.167 25.5 66.5 25.5z" />
    <glyph glyph-name="hyphen" unicode="-" horiz-adv-x="390" 
d="M338 398v-112h-286v112h286z" />
    <glyph glyph-name="period" unicode="." horiz-adv-x="269" 
d="M224 75c0 -27.333 -6.83301 -48.667 -20.5 -64s-36.5 -23 -68.5 -23s-55 6.5 -69 19.5s-21 35.5 -21 67.5c0 28 7 49.333 21 64s37 22 69 22s54.833 -7.33301 68.5 -22s20.5 -36 20.5 -64z" />
    <glyph glyph-name="slash" unicode="/" horiz-adv-x="461" 
d="M466 784l-342 -905h-130l338 905h134z" />
    <glyph glyph-name="zero" unicode="0" 
d="M599 372c0 -67.333 -5.49902 -125 -16.499 -173s-27.833 -87.5 -50.5 -118.5s-51.667 -53.833 -87 -68.5s-77.333 -22 -126 -22c-49.333 0 -91.333 7.33301 -126 22s-63.334 37.5 -86.001 68.5s-39.167 70.5 -49.5 118.5s-15.5 105.667 -15.5 173
c0 70.667 5.16699 130.5 15.5 179.5s26.833 88.833 49.5 119.5s51.667 53 87 67s77.666 21 126.999 21c48.667 0 90.5 -7 125.5 -21s63.833 -36.333 86.5 -67s39.334 -70.5 50.001 -119.5s16 -108.833 16 -179.5zM438.001 374c0 51.333 -2.33301 92.666 -7 123.999
s-11.834 55.666 -21.501 72.999s-21.834 29 -36.501 35s-32 9 -52 9c-20.667 0 -38.5 -3.16699 -53.5 -9.5s-27.333 -18.166 -37 -35.499s-16.834 -41.666 -21.501 -72.999s-7 -72.333 -7 -123c0 -52.667 2.33301 -95 7 -127s11.834 -56.667 21.501 -74s22 -28.833 37 -34.5
s32.833 -8.5 53.5 -8.5c20 0 37.333 3 52 9s26.834 17.833 36.501 35.5s16.834 42.5 21.501 74.5s7 73.667 7 125z" />
    <glyph glyph-name="one" unicode="1" 
d="M163 118h111v433l-137 -79l-17 136l223 142h99v-632h109v-118h-388v118z" />
    <glyph glyph-name="two" unicode="2" 
d="M577 539c0 -34 -7.16895 -66.834 -21.502 -98.501s-34.166 -63.334 -59.499 -95.001s-55.666 -63.667 -90.999 -96s-74.333 -66.166 -117 -101.499v-3h288l-3 -145h-498v108l127.5 124.5c40.333 38.333 75.666 74.333 105.999 108s54.333 65.5 72 95.5s26.5 59 26.5 87
c0 26 -9.16699 47.333 -27.5 64s-48.5 25 -90.5 25c-33.333 0 -64.833 -6.16699 -94.5 -18.5s-58.5 -28.166 -86.5 -47.499l-39 134c31.333 23.333 68 42.333 110 57s88.667 22 140 22c42.667 0 80.167 -5.33301 112.5 -16s59.333 -25.667 81 -45s37.834 -42.5 48.501 -69.5
s16 -56.833 16 -89.5z" />
    <glyph glyph-name="three" unicode="3" 
d="M586 225c0 -36 -5.83301 -68.333 -17.5 -97s-29.334 -53.167 -53.001 -73.5s-53.834 -36 -90.501 -47s-80 -16.5 -130 -16.5c-48 0 -91 5.33301 -129 16s-71 24 -99 40l32 130c29.333 -16 59.5 -28.167 90.5 -36.5s64.5 -12.5 100.5 -12.5
c46 0 80.167 9.16699 102.5 27.5s33.5 43.5 33.5 75.5c0 15.333 -3 29.166 -9 41.499s-16.5 22.666 -31.5 30.999s-35.333 14.833 -61 19.5s-58.167 7 -97.5 7v117c38 0 69.167 2 93.5 6s43.5 10 57.5 18s23.833 17.833 29.5 29.5s8.5 24.834 8.5 39.501
c0 24.667 -9.83301 43.667 -29.5 57s-50.167 20 -91.5 20c-38 0 -72.5 -5.66699 -103.5 -17s-60.167 -27.333 -87.5 -48l-38 129c29.333 22.667 64.833 41.334 106.5 56.001s85.834 22 132.501 22c84 0 149 -18.333 195 -55s69 -87.334 69 -152.001
c0 -38 -8.83301 -70.167 -26.5 -96.5s-43.167 -47.166 -76.5 -62.499v-2c38.667 -14 68.334 -34.5 89.001 -61.5s31 -61.833 31 -104.5z" />
    <glyph glyph-name="four" unicode="4" 
d="M534 142v-142h-152v142h-331l-14 104l301 504h196v-470h77l-4 -138h-73zM394 518l4 81l-2 1l-40 -71l-143 -249h175z" />
    <glyph glyph-name="five" unicode="5" 
d="M583 259c0 -42 -5.33203 -79.499 -15.999 -112.499s-27.334 -61 -50.001 -84s-51.5 -40.667 -86.5 -53s-76.833 -18.5 -125.5 -18.5c-44 0 -85.5 4.5 -124.5 13.5s-74.5 23.167 -106.5 42.5l29 130c30.667 -15.333 60 -27.333 88 -36s60.667 -13 98 -13
c49.333 0 83.666 9.66699 102.999 29s29 48.666 29 87.999c0 35.333 -10.5 60.5 -31.5 75.5s-53.5 22.5 -97.5 22.5c-26 0 -52.5 -2.33301 -79.5 -7s-51.167 -11 -72.5 -19l-57 62l30 371h429l5 -145h-304l-11 -139c35.333 7.33301 71.333 11 108 11
c78.667 0 138.834 -18.167 180.501 -54.5s62.5 -90.833 62.5 -163.5z" />
    <glyph glyph-name="six" unicode="6" 
d="M594 263c0 -93.333 -23.001 -161.998 -69.001 -205.998s-111.333 -66 -196 -66c-46 0 -86.667 6.5 -122 19.5s-65 34.167 -89 63.5s-42.167 67.166 -54.5 113.499s-18.5 103.166 -18.5 170.499c0 132 27.833 231.833 83.5 299.5s138.167 101.5 247.5 101.5
c33.333 0 63.833 -2 91.5 -6s55.167 -11.333 82.5 -22l-11 -140c-24 8.66699 -47.167 14.834 -69.5 18.501s-46.833 5.5 -73.5 5.5c-61.333 0 -106.666 -13.667 -135.999 -41s-47.666 -69.333 -54.999 -126l2 -2c21.333 13.333 44.666 23.666 69.999 30.999s52 11 80 11
c158 0 237 -75 237 -225zM433.999 266.002c0 33.333 -8.5 57.999 -25.5 73.999s-44.5 24 -82.5 24c-9.33301 0 -19.5 -1.16699 -30.5 -3.5s-21.833 -5.5 -32.5 -9.5s-20.5 -9 -29.5 -15s-16.5 -12.333 -22.5 -19c0.666992 -36 3.16699 -66.167 7.5 -90.5
s11.333 -43.666 21 -57.999s21.667 -24.5 36 -30.5s31.833 -9 52.5 -9c34.667 0 61 10.833 79 32.5s27 56.5 27 104.5z" />
    <glyph glyph-name="seven" unicode="7" 
d="M594 610l-281 -610h-185l304 593h-383l7 156h538v-139z" />
    <glyph glyph-name="eight" unicode="8" 
d="M44 220c0 34 8.83203 66.1699 26.499 96.5029s43.167 55.5 76.5 75.5c-22.667 17.333 -41 39.166 -55 65.499s-21 60.166 -21 101.499c0 61.333 20 110 60 146s103.667 54 191 54c86.667 0 149.834 -17.833 189.501 -53.5s59.5 -84.834 59.5 -147.501
c0 -34 -7.16699 -64.333 -21.5 -91s-34.166 -49.667 -59.499 -69c14.667 -8 28.667 -17.333 42 -28s24.666 -23.167 33.999 -37.5s16.833 -30.833 22.5 -49.5s8.5 -40 8.5 -64c0 -152 -91.667 -228 -275 -228c-96 0 -166.333 19.5 -211 58.5s-67 95.833 -67 170.5z
M438.999 207.003c0 18 -4.5 33.167 -13.5 45.5s-21 23 -36 32s-32.333 16.833 -52 23.5l-60.5 21c-21.333 -13.333 -39.333 -29 -54 -47s-22 -39 -22 -63c0 -36 9.83301 -61.667 29.5 -77s51.5 -23 95.5 -23c34 0 61.333 6.66699 82 20s31 36 31 68zM222.999 551.003
c0 -16 3.66602 -29.498 10.999 -40.498s17.333 -20.5 30 -28.5s27.334 -15 44.001 -21s34.334 -11.667 53.001 -17c21.333 13.333 37.5 28.166 48.5 44.499s16.5 35.166 16.5 56.499c0 28 -8.33301 49 -25 63s-43.334 21 -80.001 21c-65.333 0 -98 -26 -98 -78z" />
    <glyph glyph-name="nine" unicode="9" 
d="M592 405c0 -73.333 -6.66504 -136.169 -19.998 -188.502s-33.166 -95.166 -59.499 -128.499s-59.333 -57.833 -99 -73.5s-85.834 -23.5 -138.501 -23.5c-41.333 0 -76.333 2.83301 -105 8.5s-57 14.5 -85 26.5l23 134c24.667 -10 48.834 -17.5 72.501 -22.5
s49.834 -7.5 78.501 -7.5c58 0 100.333 14.833 127 44.5s42.667 76.5 48 140.5l-2 2c-20.667 -13.333 -43.334 -23.166 -68.001 -29.499s-52 -9.5 -82 -9.5c-40 0 -75 5.5 -105 16.5s-54.833 26.5 -74.5 46.5s-34.334 44.167 -44.001 72.5s-14.5 59.833 -14.5 94.5
c0 38.667 5.33301 73.5 16 104.5s27 57.333 49 79s49.667 38.334 83 50.001s72.666 17.5 117.999 17.5c89.333 0 158.666 -29.333 207.999 -88s74 -147.334 74 -266.001zM430.002 456.997c0 30.667 -2.99902 56.5 -8.99902 77.5s-14.333 38 -25 51s-23.5 22.167 -38.5 27.5
s-31.833 8 -50.5 8c-35.333 0 -62 -8.5 -80 -25.5s-27 -44.167 -27 -81.5c0 -35.333 8.83301 -62 26.5 -80s46.5 -27 86.5 -27c26 0 49.167 4.16699 69.5 12.5s36.166 20.833 47.499 37.5z" />
    <glyph glyph-name="A" unicode="A" horiz-adv-x="734" 
d="M498 146h-272l-42 -146h-178l259 750h201l262 -750h-188zM342 544l-75 -257h191l-72 257l-20 79h-3z" />
    <glyph glyph-name="B" unicode="B" horiz-adv-x="691" 
d="M648 218c0 -34 -5.16602 -64.333 -15.499 -91s-26.333 -49.5 -48 -68.5s-49.334 -33.5 -83.001 -43.5s-74.167 -15 -121.5 -15h-309v750h305c82 0 143.333 -17 184 -51s61 -81 61 -141c0 -42 -9.16699 -76.167 -27.5 -102.5s-42.5 -45.833 -72.5 -58.5v-2
c84.667 -23.333 127 -82.333 127 -177zM479.001 231c0 32 -7.66699 54.833 -23 68.5s-41.333 20.5 -78 20.5h-145v-182h149c34 0 58.667 6.5 74 19.5s23 37.5 23 73.5zM460.001 528c0 30 -7 50.833 -21 62.5s-37 17.5 -69 17.5h-136v-163h140c30 0 51.833 6.33301 65.5 19
s20.5 34 20.5 64z" />
    <glyph glyph-name="C" unicode="C" horiz-adv-x="597" 
d="M548 587c-19.333 7.33301 -41.667 13.335 -67 18.002s-52 7 -80 7c-34 0 -62.5 -3.83301 -85.5 -11.5s-41.667 -20.5 -56 -38.5s-24.5 -41.833 -30.5 -71.5s-9 -66.834 -9 -111.501c0 -47.333 3.16699 -86.5 9.5 -117.5s16.666 -56 30.999 -75s33.333 -32.333 57 -40
s52.5 -11.5 86.5 -11.5c28 0 54 2.5 78 7.5s46.667 12.167 68 21.5l17 -137c-24.667 -12 -53.667 -21.833 -87 -29.5s-66.666 -11.5 -99.999 -11.5c-114 0 -198.667 32 -254 96s-83 163.333 -83 298c0 124.667 28 219.667 84 285s144 98 264 98
c14.667 0 30 -0.833008 46 -2.5s31.667 -3.83398 47 -6.50098s30 -6 44 -10s26.333 -8 37 -12z" />
    <glyph glyph-name="D" unicode="D" horiz-adv-x="732" 
d="M689 378c0 -68 -7 -125.834 -21 -173.501s-35 -86.667 -63 -117s-63 -52.5 -105 -66.5s-90.667 -21 -146 -21h-283v750h281c59.333 0 110.333 -7.16699 153 -21.5s77.667 -36.666 105 -66.999s47.333 -69 60 -116s19 -102.833 19 -167.5zM512 378.999
c0 44.667 -2.83301 81.1689 -8.5 109.502s-15 50.666 -28 66.999s-29.667 27.666 -50 33.999s-45.5 9.5 -75.5 9.5h-110v-449h111c28.667 0 53.167 3 73.5 9s37 17.167 50 33.5s22.5 39.5 28.5 69.5s9 69 9 117z" />
    <glyph glyph-name="E" unicode="E" horiz-adv-x="619" 
d="M585 147l-4 -147h-510v750h495l3 -149h-329v-149h277v-134h-277v-171h345z" />
    <glyph glyph-name="F" unicode="F" horiz-adv-x="592" 
d="M240 598v-162h274l-2 -144h-272v-292h-168v750h494l3 -152h-329z" />
    <glyph glyph-name="G" unicode="G" horiz-adv-x="675" 
d="M624 28c-28 -13.333 -62.1689 -23.666 -102.502 -30.999s-81.166 -11 -122.499 -11c-64 0 -118.5 8.16699 -163.5 24.5s-81.833 40.666 -110.5 72.999s-49.5 72.833 -62.5 121.5s-19.5 105 -19.5 169c0 130.667 28.667 228.167 86 292.5s149.333 96.5 276 96.5
c36 0 72.333 -3 109 -9s69.334 -14.333 98.001 -25l-16 -146c-26.667 10 -55.834 17.833 -87.501 23.5s-63.167 8.5 -94.5 8.5c-37.333 0 -68.333 -3.83301 -93 -11.5s-44.5 -20.667 -59.5 -39s-25.667 -42.833 -32 -73.5s-9.5 -69 -9.5 -115
c0 -46.667 3 -85.334 9 -116.001s15.833 -55.167 29.5 -73.5s31.667 -31.166 54 -38.499s49.833 -11 82.5 -11c30.667 0 57.334 3.33301 80.001 10v256h149v-375z" />
    <glyph glyph-name="H" unicode="H" horiz-adv-x="742" 
d="M502 0v307h-262v-307h-169v750h169v-291h262v291h168v-750h-168z" />
    <glyph glyph-name="I" unicode="I" horiz-adv-x="336" 
d="M82 750h172v-750h-172v750z" />
    <glyph glyph-name="J" unicode="J" horiz-adv-x="550" 
d="M479 275c0 -52.667 -6.83301 -97.334 -20.5 -134.001s-33.334 -66.5 -59.001 -89.5s-57 -39.667 -94 -50s-78.5 -15.5 -124.5 -15.5c-31.333 0 -59.166 2.83301 -83.499 8.5s-46.166 13.5 -65.499 23.5l9 142c13.333 -8 29.666 -14.333 48.999 -19s41 -7 65 -7
c50 0 87.833 11.333 113.5 34s38.5 59.334 38.5 110.001v472h172v-475z" />
    <glyph glyph-name="K" unicode="K" horiz-adv-x="720" 
d="M504 0l-185 316h-79v-316h-169v750h169v-297h81l181 297h193l-224 -356l236 -394h-203z" />
    <glyph glyph-name="L" unicode="L" horiz-adv-x="568" 
d="M550 152l-4 -152h-475v750h170v-598h309z" />
    <glyph glyph-name="M" unicode="M" horiz-adv-x="922" 
d="M257 750l174 -438l28 -75h3l28 75l175 438h186v-750h-154v382l2 81l-3 1l-28 -76l-154 -388h-112l-153 387l-28 76l-2 -1l1 -81v-381h-149v750h186z" />
    <glyph glyph-name="N" unicode="N" horiz-adv-x="747" 
d="M558 0l-291 409l-45 67l-2 -1l1 -81v-394h-150v750h144l267 -387l45 -67l2 1l-2 80v373h149v-750h-118z" />
    <glyph glyph-name="O" unicode="O" horiz-adv-x="748" 
d="M704 375c0 -68 -6.16992 -126.5 -18.5029 -175.5s-31.833 -89.333 -58.5 -121s-60.834 -55 -102.501 -70s-91.834 -22.5 -150.501 -22.5c-115.333 0 -199.333 31.5 -252 94.5s-79 161.167 -79 294.5c0 66.667 6.33301 124.334 19 173.001s32.334 88.834 59.001 120.501
s60.834 55.167 102.501 70.5s91.834 23 150.501 23s108.834 -7.66699 150.501 -23s75.834 -38.833 102.501 -70.5s46.167 -71.834 58.5 -120.501s18.5 -106.334 18.5 -173.001zM527.997 375c0 47.333 -2.66504 86.333 -7.99805 117s-14 54.834 -26 72.501
s-27.833 29.834 -47.5 36.501s-43.834 10 -72.501 10s-52.834 -3.33301 -72.501 -10s-35.5 -18.834 -47.5 -36.501s-20.667 -41.834 -26 -72.501s-8 -69.667 -8 -117s2.66699 -86.333 8 -117s14.166 -55 26.499 -73s28.333 -30.5 48 -37.5s43.834 -10.5 72.501 -10.5
c28 0 51.833 3.5 71.5 10.5s35.5 19.5 47.5 37.5s20.667 42.333 26 73s8 69.667 8 117z" />
    <glyph glyph-name="P" unicode="P" horiz-adv-x="664" 
d="M633 493c0 -39.333 -5.50098 -74.5 -16.501 -105.5s-28.167 -57.167 -51.5 -78.5s-53.666 -37.5 -90.999 -48.5s-82 -16.5 -134 -16.5h-100v-244h-169v750h269c104 0 178.833 -21 224.5 -63s68.5 -106.667 68.5 -194zM458.999 494
c0 22.667 -2.16895 41.3311 -6.50195 55.998s-11.166 26.334 -20.499 35.001s-21.5 14.834 -36.5 18.501s-33.5 5.5 -55.5 5.5h-100v-230h100c20.667 0 38.5 1.5 53.5 4.5s27.333 8.83301 37 17.5s16.834 20.5 21.501 35.5s7 34.167 7 57.5z" />
    <glyph glyph-name="Q" unicode="Q" horiz-adv-x="748" 
d="M704 375c0 -106.667 -15.3379 -190 -46.0049 -250s-80.667 -100 -150 -120v-3l64 -48l76 -58l-190 -48l-105 138c-108 4 -186.667 37.5 -236 100.5s-74 159.167 -74 288.5c0 66.667 6.33301 124.334 19 173.001s32.334 88.834 59.001 120.501s60.834 55.167 102.501 70.5
s91.834 23 150.501 23s108.834 -7.66699 150.501 -23s75.834 -38.833 102.501 -70.5s46.167 -71.834 58.5 -120.501s18.5 -106.334 18.5 -173.001zM527.995 375c0 47.333 -2.66504 86.333 -7.99805 117s-14 54.834 -26 72.501s-27.833 29.834 -47.5 36.501
s-43.834 10 -72.501 10s-52.834 -3.33301 -72.501 -10s-35.5 -18.834 -47.5 -36.501s-20.667 -41.834 -26 -72.501s-8 -69.667 -8 -117s2.66699 -86.333 8 -117s14.166 -55 26.499 -73s28.333 -30.5 48 -37.5s43.834 -10.5 72.501 -10.5c28 0 51.833 3.5 71.5 10.5
s35.5 19.5 47.5 37.5s20.667 42.333 26 73s8 69.667 8 117z" />
    <glyph glyph-name="R" unicode="R" horiz-adv-x="680" 
d="M625 517c0 -52.667 -10.8311 -96.667 -32.498 -132s-52.834 -59.333 -93.501 -72l175 -313h-197l-131 280h-106v-280h-169v750h275c93.333 0 163.166 -18.667 209.499 -56s69.5 -96.333 69.5 -177zM449.002 510c0 38 -7.66699 64.167 -23 78.5s-41.666 21.5 -78.999 21.5
h-107v-204h104c37.333 0 64.166 7.16699 80.499 21.5s24.5 41.833 24.5 82.5z" />
    <glyph glyph-name="S" unicode="S" horiz-adv-x="578" 
d="M549 225c0 -74.667 -24.333 -133.163 -73 -175.496s-117 -63.5 -205 -63.5c-44 0 -85.5 5 -124.5 15s-74.833 23.667 -107.5 41l22 145c33.333 -17.333 67 -30.833 101 -40.5s69.667 -14.5 107 -14.5c41.333 0 71.333 7.16699 90 21.5s28 34.5 28 60.5
c0 19.333 -8.5 35 -25.5 47s-38.333 22.833 -64 32.5l-83 30c-29.667 10.333 -57.334 24.166 -83.001 41.499s-47 39.166 -64 65.499s-25.5 60.5 -25.5 102.5c0 32 5.33301 61.833 16 89.5s27 52 49 73s50.167 37.5 84.5 49.5s75.166 18 122.499 18
c36.667 0 73.5 -3.5 110.5 -10.5s70.167 -16.5 99.5 -28.5l-21 -142c-31.333 10 -62.166 17.833 -92.499 23.5s-59.833 8.5 -88.5 8.5c-23.333 0 -42.5 -1.83301 -57.5 -5.5s-27 -8.83398 -36 -15.501s-15.333 -14.334 -19 -23.001s-5.5 -18 -5.5 -28
c0 -19.333 8.5 -34.833 25.5 -46.5s38.333 -22.167 64 -31.5l83 -29c29.667 -10 57.334 -23.5 83.001 -40.5s47 -39 64 -66s25.5 -61.5 25.5 -103.5z" />
    <glyph glyph-name="T" unicode="T" horiz-adv-x="597" 
d="M383 598v-598h-170v598h-201l4 152h565l4 -152h-202z" />
    <glyph glyph-name="U" unicode="U" horiz-adv-x="726" 
d="M665 268c0 -188 -100.333 -281.999 -301 -281.999c-99.333 0 -174.666 23.167 -225.999 69.5s-77 117.166 -77 212.499v482h168v-480c0 -46 10.667 -79.333 32 -100s55.666 -31 102.999 -31s81.5 10.333 102.5 31s31.5 54 31.5 100v480h167v-482z" />
    <glyph glyph-name="V" unicode="V" horiz-adv-x="710" 
d="M704 750l-255 -750h-188l-255 750h186l145 -507l21 -78h3l20 78l148 507h175z" />
    <glyph glyph-name="W" unicode="W" horiz-adv-x="1036" 
d="M613 750l106 -504l15 -79h3l13 80l94 503h167l-177 -750h-202l-99 502l-14 80h-3l-14 -81l-98 -501h-202l-177 750h175l94 -508l13 -80h3l14 79l106 509h183z" />
    <glyph glyph-name="X" unicode="X" horiz-adv-x="712" 
d="M475 392l218 -392h-191l-109 214l-34 73h-3l-35 -74l-107 -213h-195l213 388l-208 362h200l97 -187l36 -72h3l35 72l97 187h192z" />
    <glyph glyph-name="Y" unicode="Y" horiz-adv-x="698" 
d="M196 750l126 -284l31 -74h3l30 75l121 283h185l-255 -511v-239h-172v239l-259 511h190z" />
    <glyph glyph-name="Z" unicode="Z" horiz-adv-x="618" 
d="M35 0v110l291 422l46 64l-1 2h-328l5 152h528v-123l-284 -410l-46 -63l1 -3h332l-3 -151h-541z" />
    <glyph glyph-name="bracketleft" unicode="[" horiz-adv-x="352" 
d="M78 785h271v-109h-131v-701h131v-106h-271v916z" />
    <glyph glyph-name="bracketright" unicode="]" horiz-adv-x="352" 
d="M274 -131h-271v106h131v701h-131v109h271v-916z" />
    <glyph glyph-name="a" unicode="a" horiz-adv-x="581" 
d="M394 58l-3.00098 1.00098c-18.667 -22 -42 -39 -70 -51s-59.333 -18 -94 -18c-57.333 0 -103 16.5 -137 49.5s-51 83.5 -51 151.5c0 28 4.83301 53.667 14.5 77s23.667 43.166 42 59.499s40.833 29.166 67.5 38.499s57.334 14 92.001 14c22.667 0 43.667 -1.5 63 -4.5
s37 -7.16699 53 -12.5v35c0 30.667 -8.66699 53.167 -26 67.5s-47 21.5 -89 21.5c-33.333 0 -62.5 -2.66699 -87.5 -8s-51.5 -13.666 -79.5 -24.999l-13 124c30.667 13.333 63.167 23.333 97.5 30s71.166 10 110.499 10c44.667 0 82.334 -4.83301 113.001 -14.5
s55.5 -24.5 74.5 -44.5s32.667 -45.333 41 -76s12.5 -66.667 12.5 -108v-375h-119zM370.999 260.001c-7.33301 3.33301 -18.332 6.33203 -32.999 8.99902s-32.334 4 -53.001 4c-67.333 0 -101 -26.667 -101 -80c0 -30 8 -50.833 24 -62.5s36.667 -17.5 62 -17.5
c13.333 0 26 1.83301 38 5.5s22.667 8.83398 32 15.501s16.833 14.167 22.5 22.5s8.5 17.5 8.5 27.5v76z" />
    <glyph glyph-name="b" unicode="b" horiz-adv-x="635" 
d="M600 305c0 -55.333 -5.66699 -103.001 -17 -143.001s-27.5 -72.833 -48.5 -98.5s-46.833 -44.667 -77.5 -57s-65.334 -18.5 -104.001 -18.5c-34 0 -64.667 5.66699 -92 17s-50.333 26.333 -69 45l-20 -50h-105v779l155 7v-141l-2 -80l3 -2
c20.667 18.667 43.667 32.334 69 41.001s52 13 80 13c34.667 0 66.167 -5.83301 94.5 -17.5s52.333 -30 72 -55s34.834 -57.333 45.501 -97s16 -87.167 16 -142.5zM440 301.999c0 38 -2.5 68.666 -7.5 91.999s-12.167 41.5 -21.5 54.5s-21 21.667 -35 26
s-30.333 6.5 -49 6.5c-22.667 0 -43 -4.5 -61 -13.5s-32.667 -21.5 -44 -37.5v-265c9.33301 -14.667 22.833 -27 40.5 -37s39.5 -15 65.5 -15c17.333 0 33 2.5 47 7.5s25.833 14.333 35.5 28s17 32.834 22 57.501s7.5 56.667 7.5 96z" />
    <glyph glyph-name="c" unicode="c" horiz-adv-x="493" 
d="M449 458c-15.333 5.33301 -31.998 9.83301 -49.998 13.5s-35.667 5.5 -53 5.5c-28 0 -51.667 -3.16699 -71 -9.5s-34.833 -16.333 -46.5 -30s-20 -31.667 -25 -54s-7.5 -49.5 -7.5 -81.5c0 -65.333 12.667 -111.833 38 -139.5s61.666 -41.5 108.999 -41.5
c40.667 0 77.334 7.66699 110.001 23l11 -121c-18 -11.333 -40.167 -20 -66.5 -26s-55.833 -9 -88.5 -9c-90 0 -158.167 25.667 -204.5 77s-69.5 130.333 -69.5 237c0 50 5.33301 94.5 16 133.5s27.167 71.833 49.5 98.5s51 47 86 61s76.833 21 125.5 21
c25.333 0 51.166 -2.5 77.499 -7.5s49.166 -11.167 68.499 -18.5z" />
    <glyph glyph-name="d" unicode="d" horiz-adv-x="633" 
d="M447 0l-14.999 52.001l-3 1c-18 -21.333 -40.333 -37.5 -67 -48.5s-58.334 -16.5 -95.001 -16.5c-78.667 0 -137 25.667 -175 77s-57 131.666 -57 240.999c0 100 19 177 57 231s95.667 81 173 81c58 0 107.333 -18.333 148 -55l2 2l-2 80v133l155 8v-786h-121z
M413.001 433.001c-9.33301 13.333 -22.832 24.332 -40.499 32.999s-38.167 13 -61.5 13c-21.333 0 -39.333 -3 -54 -9s-26.667 -16 -36 -30s-16 -32.5 -20 -55.5s-6 -51.5 -6 -85.5c0 -35.333 1.83301 -64.833 5.5 -88.5s10 -42.667 19 -57s20.833 -24.5 35.5 -30.5
s33 -9 55 -9c28.667 0 51.167 5.33301 67.5 16s28.166 22.334 35.499 35.001v268z" />
    <glyph glyph-name="e" unicode="e" horiz-adv-x="586" 
d="M337 -11c-104.667 0 -181.166 27.1641 -229.499 81.4971s-72.5 134.5 -72.5 240.5c0 96.667 21.667 171.834 65 225.501s110.666 80.5 201.999 80.5c77.333 0 138.333 -23 183 -69s67 -117 67 -213c0 -11.333 -0.333008 -23.666 -1 -36.999s-1.66699 -25.333 -3 -36h-353
c4 -50.667 18.833 -86.5 44.5 -107.5s64.5 -31.5 116.5 -31.5c56 0 110 10 162 30l17 -125c-25.333 -11.333 -55 -20.666 -89 -27.999s-70.333 -11 -109 -11zM410.001 364.997c-1.33301 44.667 -11.332 76.333 -29.999 95s-44.334 28 -77.001 28
c-37.333 0 -64.333 -9.5 -81 -28.5s-26.667 -50.5 -30 -94.5h218z" />
    <glyph glyph-name="f" unicode="f" horiz-adv-x="405" 
d="M98 0l0.00292969 490.999h-76v115h76v26c0 22.667 4 44.167 12 64.5s20.5 38 37.5 53s38.667 26.833 65 35.5s57.5 13 93.5 13c17.333 0 34.666 -1.16699 51.999 -3.5s32.666 -5.5 45.999 -9.5l-9 -100c-18 4 -37.333 6 -58 6c-30.667 0 -52.334 -5.66699 -65.001 -17
s-19 -26.666 -19 -45.999v-22h129v-115h-129v-491h-155z" />
    <glyph glyph-name="g" unicode="g" horiz-adv-x="587" 
d="M286 244c-26.667 0 -52 2.00195 -76 6.00195c-14 -7.33301 -21 -17 -21 -29c0 -16.667 13.333 -26 40 -28l144 -8c70.667 -4 121 -19 151 -45s45 -62.333 45 -109c0 -30 -5.16699 -57.167 -15.5 -81.5s-26.833 -45 -49.5 -62s-51.5 -30 -86.5 -39
s-77.167 -13.5 -126.5 -13.5c-43.333 0 -80.5 4 -111.5 12s-56.5 19.167 -76.5 33.5s-34.667 31.166 -44 50.499s-14 40.666 -14 63.999c0 18 4 35.5 12 52.5s19.667 32.167 35 45.5c-13.333 9.33301 -24.333 21.333 -33 36s-13 32.334 -13 53.001
c0 20 5.83301 39.333 17.5 58s30.167 34 55.5 46c-20 14.667 -36 33.5 -48 56.5s-18 51.833 -18 86.5c0 27.333 4.16699 52.5 12.5 75.5s21.833 42.833 40.5 59.5s42.667 29.667 72 39s65 14 107 14c26 0 52.333 -2.33301 79 -7s50.667 -13.334 72 -26.001l103 33l32 -74
l-64 -50c6 -18 9 -39.333 9 -64c0 -58.667 -17.833 -104.167 -53.5 -136.5s-94.5 -48.5 -176.5 -48.5zM202 64.002c-16.667 -15.333 -25 -31.6689 -25 -49.002c0 -21.333 8.5 -37.166 25.5 -47.499s45.5 -15.5 85.5 -15.5c28.667 0 52.167 1.33301 70.5 4
s32.833 6.5 43.5 11.5s18 10.833 22 17.5s6 14.334 6 23.001c0 14 -5.5 24.5 -16.5 31.5s-33.5 11.833 -67.5 14.5zM287 499.999c-30 0 -51.001 -5.83203 -63.001 -17.499s-18 -30.834 -18 -57.501c0 -29.333 7 -49 21 -59s32.667 -15 56 -15
c32.667 0 54.834 5.5 66.501 16.5s17.5 30.5 17.5 58.5s-6.16699 47.333 -18.5 58s-32.833 16 -61.5 16z" />
    <glyph glyph-name="h" unicode="h" horiz-adv-x="633" 
d="M422 0v386c0 62.667 -32.333 94 -97 94c-22.667 0 -43.167 -4.33301 -61.5 -13s-32.166 -19.667 -41.499 -33v-434h-155v778l155 8v-138l-2 -80l3 -2c22.667 19.333 47.167 32.833 73.5 40.5s52.166 11.5 77.499 11.5c64.667 0 114.667 -20.333 150 -61
s53 -97.667 53 -171v-386h-155z" />
    <glyph glyph-name="i" unicode="i" horiz-adv-x="319" 
d="M80 0v602l159 7v-609h-159zM248 737c0 -22 -7 -38.501 -21 -49.501s-36.333 -16.5 -67 -16.5c-30 0 -52.333 4.83301 -67 14.5s-22 26.834 -22 51.501c0 44.667 29.667 67 89 67c30.667 0 53 -5.66699 67 -17s21 -28 21 -50z" />
    <glyph glyph-name="j" unicode="j" horiz-adv-x="319" 
d="M239 5c0 -32.667 -4.66895 -59.833 -14.002 -81.5s-21.833 -39 -37.5 -52s-34 -22.333 -55 -28s-43.5 -8.5 -67.5 -8.5c-14.667 0 -29.167 1.33301 -43.5 4s-27.166 6 -38.499 10l7 109c12.667 -4 25 -6 37 -6c16.667 0 30.334 4.5 41.001 13.5s16 23.5 16 43.5v593
l155 7v-604zM246.998 738.001c0 -22.667 -7 -39.5 -21 -50.5s-36.333 -16.5 -67 -16.5c-30 0 -52.167 5 -66.5 15s-21.5 27.333 -21.5 52c0 44.667 29.333 67 88 67c30.667 0 53 -5.83301 67 -17.5s21 -28.167 21 -49.5z" />
    <glyph glyph-name="k" unicode="k" horiz-adv-x="617" 
d="M222 387h79l126 219h172l-165 -275l171 -331h-175l-129 261h-79v-261h-155v779l155 7v-399z" />
    <glyph glyph-name="l" unicode="l" horiz-adv-x="305" 
d="M74 0v779l157 7v-786h-157z" />
    <glyph glyph-name="m" unicode="m" horiz-adv-x="943" 
d="M732 0v387c0 32 -8 55.5 -24 70.5s-38.333 22.5 -67 22.5c-26 0 -47.333 -7.16699 -64 -21.5s-25 -36.5 -25 -66.5v-392h-155v392c0 31.333 -7.83301 53.833 -23.5 67.5s-37.167 20.5 -64.5 20.5c-18.667 0 -36.167 -4.16699 -52.5 -12.5s-29.166 -19.5 -38.499 -33.5
v-434h-156v602l112 8l25 -57c21.333 20 45.333 35.667 72 47s54 17 82 17c75.333 0 128.666 -27 159.999 -81c20.667 28 45.5 48.5 74.5 61.5s60.833 19.5 95.5 19.5c30 0 57.5 -4.66699 82.5 -14s46.5 -23.5 64.5 -42.5s32 -42.667 42 -71s15 -61.5 15 -99.5v-390h-155z
" />
    <glyph glyph-name="n" unicode="n" horiz-adv-x="629" 
d="M418 0v386.001c0 34 -8.33301 58.167 -25 72.5s-41 21.5 -73 21.5c-19.333 0 -38.5 -4 -57.5 -12s-33.833 -19.333 -44.5 -34v-434h-156v603l112 7l23 -52c22.667 19.333 48.167 34.166 76.5 44.499s58.5 15.5 90.5 15.5c64.667 0 115.667 -19.667 153 -59
s56 -97 56 -173v-386h-155z" />
    <glyph glyph-name="o" unicode="o" horiz-adv-x="624" 
d="M590 301c0 -56 -5.33301 -103.833 -16 -143.5s-27.334 -72.167 -50.001 -97.5s-51.5 -44 -86.5 -56s-76.5 -18 -124.5 -18s-89.5 6 -124.5 18s-63.833 30.667 -86.5 56s-39.5 57.833 -50.5 97.5s-16.5 87.5 -16.5 143.5c0 110.667 22.333 191 67 241s115 75 211 75
c48 0 89.5 -6 124.5 -18s63.833 -30.833 86.5 -56.5s39.334 -58.5 50.001 -98.5s16 -87.667 16 -143zM196 301c0 -37.333 2.16797 -68.167 6.50098 -92.5s11.166 -43.5 20.499 -57.5s21.333 -23.833 36 -29.5s32.667 -8.5 54 -8.5s39.333 2.83301 54 8.5
s26.667 15.667 36 30s16 33.5 20 57.5s6 54.667 6 92c0 36.667 -2 67.167 -6 91.5s-10.667 43.666 -20 57.999s-21.333 24.333 -36 30s-32.667 8.5 -54 8.5s-39.5 -2.83301 -54.5 -8.5s-27.167 -15.667 -36.5 -30s-16 -33.666 -20 -57.999s-6 -54.833 -6 -91.5z" />
    <glyph glyph-name="p" unicode="p" horiz-adv-x="630" 
d="M596 304c0 -53.333 -5.66895 -99.667 -17.002 -139s-27.166 -72 -47.499 -98s-45 -45.333 -74 -58s-61.167 -19 -96.5 -19c-27.333 0 -52.833 3.33301 -76.5 10s-45.167 19.667 -64.5 39l-3 -1l2 -81v-111h-157v756l109 7l30 -53c21.333 19.333 46 34.333 74 45
s58 16 90 16c37.333 0 70.333 -5.5 99 -16.5s52.834 -28.667 72.501 -53s34.5 -56.5 44.5 -96.5s15 -89 15 -147zM434.998 304.999c0 34.667 -2.16797 63.333 -6.50098 86s-11 40.5 -20 53.5s-20.667 22 -35 27s-31.166 7.5 -50.499 7.5
c-22.667 0 -42.834 -4.33301 -60.501 -13s-32.167 -20.667 -43.5 -36v-260c9.33301 -14.667 22.333 -27 39 -37s37.334 -15 62.001 -15c17.333 0 33 2.5 47 7.5s26 14.333 36 28s17.833 32.667 23.5 57s8.5 55.833 8.5 94.5z" />
    <glyph glyph-name="q" unicode="q" horiz-adv-x="631" 
d="M412 -155v107l2 81l-2 1c-36.667 -28.667 -83.334 -43 -140.001 -43c-35.333 0 -67.5 6 -96.5 18s-54 30.5 -75 55.5s-37.167 57 -48.5 96s-17 85.833 -17 140.5c0 104 20 182.667 60 236s100.333 80 181 80c72.667 0 130.334 -22 173.001 -66l18 55l100 -1v-759z
M412 432c-8 13.333 -21 24.333 -39 33s-39 13 -63 13c-21.333 0 -39.333 -2.5 -54 -7.5s-26.5 -14.167 -35.5 -27.5s-15.333 -31.5 -19 -54.5s-5.5 -52.167 -5.5 -87.5c0 -34 2.16699 -62.5 6.5 -85.5s11.166 -41.5 20.499 -55.5s21.333 -24 36 -30s32.334 -9 53.001 -9
c28 0 50.667 5.33301 68 16s28 22.667 32 36v259z" />
    <glyph glyph-name="r" unicode="r" horiz-adv-x="458" 
d="M62 0l0.00195312 602.001l124 6l14 -101h3c19.333 36.667 43.166 64 71.499 82s59.833 27 94.5 27c13.333 0 25.666 -0.833008 36.999 -2.5s21 -3.83398 29 -6.50098l-10 -153c-9.33301 3.33301 -19.666 5.83301 -30.999 7.5s-23 2.5 -35 2.5
c-40.667 0 -74.334 -14 -101.001 -42s-40 -67.333 -40 -118v-304h-156z" />
    <glyph glyph-name="s" unicode="s" horiz-adv-x="497" 
d="M465 190c0 -30 -4.33496 -57.498 -13.002 -82.498s-22.334 -46.333 -41.001 -64s-42.667 -31.334 -72 -41.001s-64.333 -14.5 -105 -14.5c-36.667 0 -71.167 3.5 -103.5 10.5s-61.166 17.5 -86.499 31.5l16 128c25.333 -14.667 54 -25.5 86 -32.5s61 -10.5 87 -10.5
c31.333 0 53.833 5.66699 67.5 17s20.5 26 20.5 44c0 16 -7 28.5 -21 37.5s-31.333 17 -52 24l-67.5 22c-24.333 7.66699 -46.833 18.167 -67.5 31.5s-38 30.833 -52 52.5s-21 50.167 -21 85.5c0 27.333 4.66699 52.5 14 75.5s23.5 42.667 42.5 59
s42.833 29.166 71.5 38.499s62.667 14 102 14c30.667 0 60.667 -2.83301 90 -8.5s56.666 -13.834 81.999 -24.501l-13 -127c-25.333 10.667 -53 18.5 -83 23.5s-56.333 7.5 -79 7.5c-25.333 0 -44.833 -4.66699 -58.5 -14s-20.5 -21.666 -20.5 -36.999
s6.83301 -27.166 20.5 -35.499s30.834 -15.833 51.501 -22.5l66.5 -21c23.667 -7.33301 45.834 -17.5 66.501 -30.5s37.834 -30.333 51.501 -52s20.5 -49.834 20.5 -84.501z" />
    <glyph glyph-name="t" unicode="t" horiz-adv-x="403" 
d="M245 490l0.00292969 -310c0 -23.333 6 -40.333 18 -51s30 -16 54 -16c8 0 16.667 0.666992 26 2s16.666 3 21.999 5l9 -113c-10.667 -4.66699 -25.334 -8.66699 -44.001 -12s-38.667 -5 -60 -5c-60.667 0 -105.834 16.333 -135.501 49s-44.5 78 -44.5 136v315h-68v116h75
l26 137l122 11v-148h135v-116h-135z" />
    <glyph glyph-name="u" unicode="u" horiz-adv-x="622" 
d="M566 214c0 -74 -20.8311 -130.001 -62.498 -168.001s-105.834 -57 -192.501 -57s-150.834 19.333 -192.501 58s-62.5 94.334 -62.5 167.001v392h155v-389c0 -60.667 33.333 -91 100 -91s100 30.333 100 91v389h155v-392z" />
    <glyph glyph-name="v" unicode="v" horiz-adv-x="652" 
d="M636 606l-220 -606h-180l-220 606h170l116 -388l22 -78h3l21 78l118 388h170z" />
    <glyph glyph-name="w" unicode="w" horiz-adv-x="890" 
d="M529 606l81 -397l15 -79h3l12 80l68 396h152l-136 -606h-190l-68 362l-13 81h-3l-14 -81l-71 -362h-190l-145 606h156l73 -395l14 -80h3l13 80l78 395h162z" />
    <glyph glyph-name="x" unicode="x" horiz-adv-x="624" 
d="M342 161l-34 73h-3l-34 -74l-78 -160h-171l181 306l-178 300h180l76 -153l34 -73h3l33 73l75 153h172l-170 -296l175 -310h-180z" />
    <glyph glyph-name="y" unicode="y" horiz-adv-x="653" 
d="M181 -52c21.333 0 39.666 3.83301 54.999 11.5s28 23.167 38 46.5l3 8l-261 592h177l132 -370l26 -76h3l19 78l99 368h165l-208 -601c-22.667 -62 -52 -106.333 -88 -133s-80 -40 -132 -40c-18.667 0 -36.667 1.5 -54 4.5s-33.666 7.83301 -48.999 14.5l12 110
c21.333 -8.66699 42.333 -13 63 -13z" />
    <glyph glyph-name="z" unicode="z" horiz-adv-x="538" 
d="M269 194l-48 -62l1 -3h278l-4 -129h-454v109l222 303l48 63l-1 2h-261l5 129h436v-108z" />
    <glyph glyph-name="braceleft" unicode="{" horiz-adv-x="386" 
d="M201 220c0 -15.333 -0.5 -29.667 -1.5 -43s-2.33301 -26.333 -4 -39s-3 -25.167 -4 -37.5s-1.5 -25.5 -1.5 -39.5c0 -22 6.83301 -40.667 20.5 -56s35.5 -23 65.5 -23h33v-116h-26c-43.333 0 -79.666 4 -108.999 12s-53.166 19.5 -71.499 34.5s-31.5 33.333 -39.5 55
s-12 46.167 -12 73.5c0 31.333 2.5 62.166 7.5 92.499s7.5 59.833 7.5 88.5c0 20 -5.83301 36.5 -17.5 49.5s-26.834 21.5 -45.501 25.5v64c18.667 4 33.834 12.5 45.501 25.5s17.5 29.5 17.5 49.5c0 28.667 -2.5 58.167 -7.5 88.5s-7.5 61.166 -7.5 92.499
c0 27.333 4 51.833 12 73.5s21.167 40 39.5 55s42.166 26.5 71.499 34.5s65.666 12 108.999 12h26v-116h-33c-30 0 -51.833 -7.66699 -65.5 -23s-20.5 -34 -20.5 -56c0 -14 0.5 -27.333 1.5 -40s2.33301 -25.167 4 -37.5s3 -25.166 4 -38.499s1.5 -27.666 1.5 -42.999
c0 -24 -4.83301 -45.333 -14.5 -64s-23.5 -33.667 -41.5 -45c37.333 -24 56 -60.333 56 -109z" />
    <glyph glyph-name="bar" unicode="|" horiz-adv-x="290" 
d="M85 807h120v-985h-120v985z" />
    <glyph glyph-name="braceright" unicode="}" horiz-adv-x="386" 
d="M111 220c0 48.667 18.667 85.001 56 109.001c-18 11.333 -31.833 26.333 -41.5 45s-14.5 40 -14.5 64c0 15.333 0.5 29.666 1.5 42.999s2.33301 26.166 4 38.499s3 24.833 4 37.5s1.5 26 1.5 40c0 22 -6.83301 40.667 -20.5 56s-35.5 23 -65.5 23h-33v116h26
c42.667 0 78.834 -4 108.501 -12s53.667 -19.5 72 -34.5s31.5 -33.333 39.5 -55s12 -46.167 12 -73.5c0 -31.333 -2.5 -62.166 -7.5 -92.499s-7.5 -59.833 -7.5 -88.5c0 -20 5.83301 -36.5 17.5 -49.5s26.834 -21.5 45.501 -25.5v-64
c-18.667 -4 -33.834 -12.5 -45.501 -25.5s-17.5 -29.5 -17.5 -49.5c0 -28.667 2.5 -58.167 7.5 -88.5s7.5 -61.166 7.5 -92.499c0 -27.333 -4 -51.833 -12 -73.5s-21.167 -40 -39.5 -55s-42.333 -26.5 -72 -34.5s-65.834 -12 -108.501 -12h-26v116h33
c30 0 51.833 7.66699 65.5 23s20.5 34 20.5 56c0 14 -0.5 27.167 -1.5 39.5s-2.33301 24.833 -4 37.5s-3 25.667 -4 39s-1.5 27.666 -1.5 42.999z" />
    <glyph glyph-name="asciitilde" unicode="~" 
d="M72 589c6 127.333 54.666 191.001 145.999 191.001c19.333 0 38 -3.33301 56 -10s35.333 -14.167 52 -22.5s32.834 -15.833 48.501 -22.5s31.167 -10 46.5 -10c17.333 0 30.666 5.16699 39.999 15.5s15.666 22.166 18.999 35.499h89
c-3.33301 -64 -17.5 -111.667 -42.5 -143s-59.5 -47 -103.5 -47c-20 0 -38.833 3.33301 -56.5 10s-34.667 14.167 -51 22.5s-32.166 15.833 -47.499 22.5s-30.333 10 -45 10c-17.333 0 -31.166 -5 -41.499 -15s-17.5 -22 -21.5 -36z" />
    <glyph glyph-name="afii10053" unicode="&#xaa;" horiz-adv-x="597" 
d="M548 587c-19.333 7.33301 -41.668 13.333 -67.001 18s-52 7 -80 7c-29.333 0 -54.5 -2.66699 -75.5 -8s-38.5 -14.333 -52.5 -27s-25.167 -29.167 -33.5 -49.5s-13.833 -45.5 -16.5 -75.5h294v-134h-295c2.66699 -35.333 8 -64.666 16 -87.999s19.167 -42 33.5 -56
s32.5 -24 54.5 -30s48 -9 78 -9c28 0 54 2.5 78 7.5s46.667 12.167 68 21.5l17 -137c-24.667 -12 -53.667 -21.833 -87 -29.5s-66.666 -11.5 -99.999 -11.5c-114 0 -198.667 32 -254 96s-83 163.333 -83 298c0 124.667 28 219.667 84 285s144 98 264 98
c14.667 0 30 -0.833008 46 -2.5s31.667 -3.83398 47 -6.50098s30 -6 44 -10s26.333 -8 37 -12z" />
    <glyph glyph-name="afii10053" unicode="&#x404;" horiz-adv-x="597" 
d="M548 587c-19.333 7.33301 -41.668 13.333 -67.001 18s-52 7 -80 7c-29.333 0 -54.5 -2.66699 -75.5 -8s-38.5 -14.333 -52.5 -27s-25.167 -29.167 -33.5 -49.5s-13.833 -45.5 -16.5 -75.5h294v-134h-295c2.66699 -35.333 8 -64.666 16 -87.999s19.167 -42 33.5 -56
s32.5 -24 54.5 -30s48 -9 78 -9c28 0 54 2.5 78 7.5s46.667 12.167 68 21.5l17 -137c-24.667 -12 -53.667 -21.833 -87 -29.5s-66.666 -11.5 -99.999 -11.5c-114 0 -198.667 32 -254 96s-83 163.333 -83 298c0 124.667 28 219.667 84 285s144 98 264 98
c14.667 0 30 -0.833008 46 -2.5s31.667 -3.83398 47 -6.50098s30 -6 44 -10s26.333 -8 37 -12z" />
    <glyph glyph-name="mu" unicode="&#xb5;" horiz-adv-x="628" 
d="M325 -9c-27.333 0 -51.832 5.5 -73.499 16.5s-39.5 27.5 -53.5 49.5l-2 -1c2 -36 4.33301 -71 7 -105s5.66699 -67.333 9 -100l-150 -12v767h156v-389c0 -28 9.33301 -49.833 28 -65.5s43.334 -23.5 74.001 -23.5c29.333 0 53 6.66699 71 20s27 34 27 62v396h154v-602
l-110 -9l-19 43c-14.667 -14.667 -31.834 -26.167 -51.501 -34.5s-41.834 -12.5 -66.501 -12.5z" />
    <glyph glyph-name="periodcentered" unicode="&#xb7;" horiz-adv-x="296" 
d="M237 346c0 -27.333 -6.83301 -48.667 -20.5 -64s-36.5 -23 -68.5 -23s-55 6.5 -69 19.5s-21 35.5 -21 67.5c0 28 7 49.333 21 64s37 22 69 22s54.833 -7.33301 68.5 -22s20.5 -36 20.5 -64z" />
    <glyph glyph-name="afii10105" unicode="&#xbc;" horiz-adv-x="319" 
d="M239 5c0 -32.667 -4.66895 -59.833 -14.002 -81.5s-21.833 -39 -37.5 -52s-34 -22.333 -55 -28s-43.5 -8.5 -67.5 -8.5c-14.667 0 -29.167 1.33301 -43.5 4s-27.166 6 -38.499 10l7 109c12.667 -4 25 -6 37 -6c16.667 0 30.334 4.5 41.001 13.5s16 23.5 16 43.5v593
l155 7v-604zM246.998 738.001c0 -22.667 -7 -39.5 -21 -50.5s-36.333 -16.5 -67 -16.5c-30 0 -52.167 5 -66.5 15s-21.5 27.333 -21.5 52c0 44.667 29.333 67 88 67c30.667 0 53 -5.83301 67 -17.5s21 -28.167 21 -49.5z" />
    <glyph glyph-name="afii10105" unicode="&#x458;" horiz-adv-x="319" 
d="M239 5c0 -32.667 -4.66895 -59.833 -14.002 -81.5s-21.833 -39 -37.5 -52s-34 -22.333 -55 -28s-43.5 -8.5 -67.5 -8.5c-14.667 0 -29.167 1.33301 -43.5 4s-27.166 6 -38.499 10l7 109c12.667 -4 25 -6 37 -6c16.667 0 30.334 4.5 41.001 13.5s16 23.5 16 43.5v593
l155 7v-604zM246.998 738.001c0 -22.667 -7 -39.5 -21 -50.5s-36.333 -16.5 -67 -16.5c-30 0 -52.167 5 -66.5 15s-21.5 27.333 -21.5 52c0 44.667 29.333 67 88 67c30.667 0 53 -5.83301 67 -17.5s21 -28.167 21 -49.5z" />
    <glyph glyph-name="afii10054" unicode="&#xbd;" horiz-adv-x="578" 
d="M549 225c0 -74.667 -24.333 -133.163 -73 -175.496s-117 -63.5 -205 -63.5c-44 0 -85.5 5 -124.5 15s-74.833 23.667 -107.5 41l22 145c33.333 -17.333 67 -30.833 101 -40.5s69.667 -14.5 107 -14.5c41.333 0 71.333 7.16699 90 21.5s28 34.5 28 60.5
c0 19.333 -8.5 35 -25.5 47s-38.333 22.833 -64 32.5l-83 30c-29.667 10.333 -57.334 24.166 -83.001 41.499s-47 39.166 -64 65.499s-25.5 60.5 -25.5 102.5c0 32 5.33301 61.833 16 89.5s27 52 49 73s50.167 37.5 84.5 49.5s75.166 18 122.499 18
c36.667 0 73.5 -3.5 110.5 -10.5s70.167 -16.5 99.5 -28.5l-21 -142c-31.333 10 -62.166 17.833 -92.499 23.5s-59.833 8.5 -88.5 8.5c-23.333 0 -42.5 -1.83301 -57.5 -5.5s-27 -8.83398 -36 -15.501s-15.333 -14.334 -19 -23.001s-5.5 -18 -5.5 -28
c0 -19.333 8.5 -34.833 25.5 -46.5s38.333 -22.167 64 -31.5l83 -29c29.667 -10 57.334 -23.5 83.001 -40.5s47 -39 64 -66s25.5 -61.5 25.5 -103.5z" />
    <glyph glyph-name="afii10054" unicode="&#x405;" horiz-adv-x="578" 
d="M549 225c0 -74.667 -24.333 -133.163 -73 -175.496s-117 -63.5 -205 -63.5c-44 0 -85.5 5 -124.5 15s-74.833 23.667 -107.5 41l22 145c33.333 -17.333 67 -30.833 101 -40.5s69.667 -14.5 107 -14.5c41.333 0 71.333 7.16699 90 21.5s28 34.5 28 60.5
c0 19.333 -8.5 35 -25.5 47s-38.333 22.833 -64 32.5l-83 30c-29.667 10.333 -57.334 24.166 -83.001 41.499s-47 39.166 -64 65.499s-25.5 60.5 -25.5 102.5c0 32 5.33301 61.833 16 89.5s27 52 49 73s50.167 37.5 84.5 49.5s75.166 18 122.499 18
c36.667 0 73.5 -3.5 110.5 -10.5s70.167 -16.5 99.5 -28.5l-21 -142c-31.333 10 -62.166 17.833 -92.499 23.5s-59.833 8.5 -88.5 8.5c-23.333 0 -42.5 -1.83301 -57.5 -5.5s-27 -8.83398 -36 -15.501s-15.333 -14.334 -19 -23.001s-5.5 -18 -5.5 -28
c0 -19.333 8.5 -34.833 25.5 -46.5s38.333 -22.167 64 -31.5l83 -29c29.667 -10 57.334 -23.5 83.001 -40.5s47 -39 64 -66s25.5 -61.5 25.5 -103.5z" />
    <glyph glyph-name="afii10102" unicode="&#xbe;" horiz-adv-x="497" 
d="M465 190c0 -30 -4.33496 -57.498 -13.002 -82.498s-22.334 -46.333 -41.001 -64s-42.667 -31.334 -72 -41.001s-64.333 -14.5 -105 -14.5c-36.667 0 -71.167 3.5 -103.5 10.5s-61.166 17.5 -86.499 31.5l16 128c25.333 -14.667 54 -25.5 86 -32.5s61 -10.5 87 -10.5
c31.333 0 53.833 5.66699 67.5 17s20.5 26 20.5 44c0 16 -7 28.5 -21 37.5s-31.333 17 -52 24l-67.5 22c-24.333 7.66699 -46.833 18.167 -67.5 31.5s-38 30.833 -52 52.5s-21 50.167 -21 85.5c0 27.333 4.66699 52.5 14 75.5s23.5 42.667 42.5 59
s42.833 29.166 71.5 38.499s62.667 14 102 14c30.667 0 60.667 -2.83301 90 -8.5s56.666 -13.834 81.999 -24.501l-13 -127c-25.333 10.667 -53 18.5 -83 23.5s-56.333 7.5 -79 7.5c-25.333 0 -44.833 -4.66699 -58.5 -14s-20.5 -21.666 -20.5 -36.999
s6.83301 -27.166 20.5 -35.499s30.834 -15.833 51.501 -22.5l66.5 -21c23.667 -7.33301 45.834 -17.5 66.501 -30.5s37.834 -30.333 51.501 -52s20.5 -49.834 20.5 -84.501z" />
    <glyph glyph-name="afii10102" unicode="&#x455;" horiz-adv-x="497" 
d="M465 190c0 -30 -4.33496 -57.498 -13.002 -82.498s-22.334 -46.333 -41.001 -64s-42.667 -31.334 -72 -41.001s-64.333 -14.5 -105 -14.5c-36.667 0 -71.167 3.5 -103.5 10.5s-61.166 17.5 -86.499 31.5l16 128c25.333 -14.667 54 -25.5 86 -32.5s61 -10.5 87 -10.5
c31.333 0 53.833 5.66699 67.5 17s20.5 26 20.5 44c0 16 -7 28.5 -21 37.5s-31.333 17 -52 24l-67.5 22c-24.333 7.66699 -46.833 18.167 -67.5 31.5s-38 30.833 -52 52.5s-21 50.167 -21 85.5c0 27.333 4.66699 52.5 14 75.5s23.5 42.667 42.5 59
s42.833 29.166 71.5 38.499s62.667 14 102 14c30.667 0 60.667 -2.83301 90 -8.5s56.666 -13.834 81.999 -24.501l-13 -127c-25.333 10.667 -53 18.5 -83 23.5s-56.333 7.5 -79 7.5c-25.333 0 -44.833 -4.66699 -58.5 -14s-20.5 -21.666 -20.5 -36.999
s6.83301 -27.166 20.5 -35.499s30.834 -15.833 51.501 -22.5l66.5 -21c23.667 -7.33301 45.834 -17.5 66.501 -30.5s37.834 -30.333 51.501 -52s20.5 -49.834 20.5 -84.501z" />
    <glyph glyph-name="afii10017" unicode="&#xc0;" horiz-adv-x="734" 
d="M498 146h-272l-42 -146h-178l259 750h201l262 -750h-188zM342 544l-75 -257h191l-72 257l-20 79h-3z" />
    <glyph glyph-name="afii10017" unicode="&#x410;" horiz-adv-x="734" 
d="M498 146h-272l-42 -146h-178l259 750h201l262 -750h-188zM342 544l-75 -257h191l-72 257l-20 79h-3z" />
    <glyph glyph-name="afii10019" unicode="&#xc2;" horiz-adv-x="691" 
d="M648 218c0 -34 -5.16602 -64.333 -15.499 -91s-26.333 -49.5 -48 -68.5s-49.334 -33.5 -83.001 -43.5s-74.167 -15 -121.5 -15h-309v750h305c82 0 143.333 -17 184 -51s61 -81 61 -141c0 -42 -9.16699 -76.167 -27.5 -102.5s-42.5 -45.833 -72.5 -58.5v-2
c84.667 -23.333 127 -82.333 127 -177zM479.001 231c0 32 -7.66699 54.833 -23 68.5s-41.333 20.5 -78 20.5h-145v-182h149c34 0 58.667 6.5 74 19.5s23 37.5 23 73.5zM460.001 528c0 30 -7 50.833 -21 62.5s-37 17.5 -69 17.5h-136v-163h140c30 0 51.833 6.33301 65.5 19
s20.5 34 20.5 64z" />
    <glyph glyph-name="afii10019" unicode="&#x412;" horiz-adv-x="691" 
d="M648 218c0 -34 -5.16602 -64.333 -15.499 -91s-26.333 -49.5 -48 -68.5s-49.334 -33.5 -83.001 -43.5s-74.167 -15 -121.5 -15h-309v750h305c82 0 143.333 -17 184 -51s61 -81 61 -141c0 -42 -9.16699 -76.167 -27.5 -102.5s-42.5 -45.833 -72.5 -58.5v-2
c84.667 -23.333 127 -82.333 127 -177zM479.001 231c0 32 -7.66699 54.833 -23 68.5s-41.333 20.5 -78 20.5h-145v-182h149c34 0 58.667 6.5 74 19.5s23 37.5 23 73.5zM460.001 528c0 30 -7 50.833 -21 62.5s-37 17.5 -69 17.5h-136v-163h140c30 0 51.833 6.33301 65.5 19
s20.5 34 20.5 64z" />
    <glyph glyph-name="afii10020" unicode="&#xc3;" horiz-adv-x="592" 
d="M240 598v-598h-168v750h494l3 -152h-329z" />
    <glyph glyph-name="afii10020" unicode="&#x413;" horiz-adv-x="592" 
d="M240 598v-598h-168v750h494l3 -152h-329z" />
    <glyph glyph-name="afii10022" unicode="&#xc5;" horiz-adv-x="619" 
d="M585 147l-4 -147h-510v750h495l3 -149h-329v-149h277v-134h-277v-171h345z" />
    <glyph glyph-name="afii10022" unicode="&#x415;" horiz-adv-x="619" 
d="M585 147l-4 -147h-510v750h495l3 -149h-329v-149h277v-134h-277v-171h345z" />
    <glyph glyph-name="afii10025" unicode="&#xc7;" 
d="M586 225c0 -36 -5.83301 -68.333 -17.5 -97s-29.334 -53.167 -53.001 -73.5s-53.834 -36 -90.501 -47s-80 -16.5 -130 -16.5c-48 0 -91 5.33301 -129 16s-71 24 -99 40l32 130c29.333 -16 59.5 -28.167 90.5 -36.5s64.5 -12.5 100.5 -12.5
c46 0 80.167 9.16699 102.5 27.5s33.5 43.5 33.5 75.5c0 15.333 -3 29.166 -9 41.499s-16.5 22.666 -31.5 30.999s-35.333 14.833 -61 19.5s-58.167 7 -97.5 7v117c38 0 69.167 2 93.5 6s43.5 10 57.5 18s23.833 17.833 29.5 29.5s8.5 24.834 8.5 39.501
c0 24.667 -9.83301 43.667 -29.5 57s-50.167 20 -91.5 20c-38 0 -72.5 -5.66699 -103.5 -17s-60.167 -27.333 -87.5 -48l-38 129c29.333 22.667 64.833 41.334 106.5 56.001s85.834 22 132.501 22c84 0 149 -18.333 195 -55s69 -87.334 69 -152.001
c0 -38 -8.83301 -70.167 -26.5 -96.5s-43.167 -47.166 -76.5 -62.499v-2c38.667 -14 68.334 -34.5 89.001 -61.5s31 -61.833 31 -104.5z" />
    <glyph glyph-name="afii10025" unicode="&#x417;" 
d="M586 225c0 -36 -5.83301 -68.333 -17.5 -97s-29.334 -53.167 -53.001 -73.5s-53.834 -36 -90.501 -47s-80 -16.5 -130 -16.5c-48 0 -91 5.33301 -129 16s-71 24 -99 40l32 130c29.333 -16 59.5 -28.167 90.5 -36.5s64.5 -12.5 100.5 -12.5
c46 0 80.167 9.16699 102.5 27.5s33.5 43.5 33.5 75.5c0 15.333 -3 29.166 -9 41.499s-16.5 22.666 -31.5 30.999s-35.333 14.833 -61 19.5s-58.167 7 -97.5 7v117c38 0 69.167 2 93.5 6s43.5 10 57.5 18s23.833 17.833 29.5 29.5s8.5 24.834 8.5 39.501
c0 24.667 -9.83301 43.667 -29.5 57s-50.167 20 -91.5 20c-38 0 -72.5 -5.66699 -103.5 -17s-60.167 -27.333 -87.5 -48l-38 129c29.333 22.667 64.833 41.334 106.5 56.001s85.834 22 132.501 22c84 0 149 -18.333 195 -55s69 -87.334 69 -152.001
c0 -38 -8.83301 -70.167 -26.5 -96.5s-43.167 -47.166 -76.5 -62.499v-2c38.667 -14 68.334 -34.5 89.001 -61.5s31 -61.833 31 -104.5z" />
    <glyph glyph-name="afii10026" unicode="&#xc8;" horiz-adv-x="747" 
d="M71 0v750h149v-373l-2 -80l2 -1l45 67l267 387h144v-750h-150v394l1 81l-2 1l-45 -67l-291 -409h-118z" />
    <glyph glyph-name="afii10026" unicode="&#x418;" horiz-adv-x="747" 
d="M71 0v750h149v-373l-2 -80l2 -1l45 67l267 387h144v-750h-150v394l1 81l-2 1l-45 -67l-291 -409h-118z" />
    <glyph glyph-name="afii10028" unicode="&#xca;" horiz-adv-x="720" 
d="M504 0l-185 316h-79v-316h-169v750h169v-297h81l181 297h193l-224 -356l236 -394h-203z" />
    <glyph glyph-name="afii10028" unicode="&#x41a;" horiz-adv-x="720" 
d="M504 0l-185 316h-79v-316h-169v750h169v-297h81l181 297h193l-224 -356l236 -394h-203z" />
    <glyph glyph-name="afii10029" unicode="&#xcb;" horiz-adv-x="710" 
d="M529 0l-148 507l-20 78h-3l-21 -78l-145 -507h-186l255 750h188l255 -750h-175z" />
    <glyph glyph-name="afii10029" unicode="&#x41b;" horiz-adv-x="710" 
d="M529 0l-148 507l-20 78h-3l-21 -78l-145 -507h-186l255 750h188l255 -750h-175z" />
    <glyph glyph-name="afii10030" unicode="&#xcc;" horiz-adv-x="922" 
d="M257 750l174 -438l28 -75h3l28 75l175 438h186v-750h-154v382l2 81l-3 1l-28 -76l-154 -388h-112l-153 387l-28 76l-2 -1l1 -81v-381h-149v750h186z" />
    <glyph glyph-name="afii10030" unicode="&#x41c;" horiz-adv-x="922" 
d="M257 750l174 -438l28 -75h3l28 75l175 438h186v-750h-154v382l2 81l-3 1l-28 -76l-154 -388h-112l-153 387l-28 76l-2 -1l1 -81v-381h-149v750h186z" />
    <glyph glyph-name="afii10031" unicode="&#xcd;" horiz-adv-x="742" 
d="M502 0v307h-262v-307h-169v750h169v-291h262v291h168v-750h-168z" />
    <glyph glyph-name="afii10031" unicode="&#x41d;" horiz-adv-x="742" 
d="M502 0v307h-262v-307h-169v750h169v-291h262v291h168v-750h-168z" />
    <glyph glyph-name="afii10032" unicode="&#xce;" horiz-adv-x="748" 
d="M704 375c0 -68 -6.16992 -126.5 -18.5029 -175.5s-31.833 -89.333 -58.5 -121s-60.834 -55 -102.501 -70s-91.834 -22.5 -150.501 -22.5c-115.333 0 -199.333 31.5 -252 94.5s-79 161.167 -79 294.5c0 66.667 6.33301 124.334 19 173.001s32.334 88.834 59.001 120.501
s60.834 55.167 102.501 70.5s91.834 23 150.501 23s108.834 -7.66699 150.501 -23s75.834 -38.833 102.501 -70.5s46.167 -71.834 58.5 -120.501s18.5 -106.334 18.5 -173.001zM527.997 375c0 47.333 -2.66504 86.333 -7.99805 117s-14 54.834 -26 72.501
s-27.833 29.834 -47.5 36.501s-43.834 10 -72.501 10s-52.834 -3.33301 -72.501 -10s-35.5 -18.834 -47.5 -36.501s-20.667 -41.834 -26 -72.501s-8 -69.667 -8 -117s2.66699 -86.333 8 -117s14.166 -55 26.499 -73s28.333 -30.5 48 -37.5s43.834 -10.5 72.501 -10.5
c28 0 51.833 3.5 71.5 10.5s35.5 19.5 47.5 37.5s20.667 42.333 26 73s8 69.667 8 117z" />
    <glyph glyph-name="afii10032" unicode="&#x41e;" horiz-adv-x="748" 
d="M704 375c0 -68 -6.16992 -126.5 -18.5029 -175.5s-31.833 -89.333 -58.5 -121s-60.834 -55 -102.501 -70s-91.834 -22.5 -150.501 -22.5c-115.333 0 -199.333 31.5 -252 94.5s-79 161.167 -79 294.5c0 66.667 6.33301 124.334 19 173.001s32.334 88.834 59.001 120.501
s60.834 55.167 102.501 70.5s91.834 23 150.501 23s108.834 -7.66699 150.501 -23s75.834 -38.833 102.501 -70.5s46.167 -71.834 58.5 -120.501s18.5 -106.334 18.5 -173.001zM527.997 375c0 47.333 -2.66504 86.333 -7.99805 117s-14 54.834 -26 72.501
s-27.833 29.834 -47.5 36.501s-43.834 10 -72.501 10s-52.834 -3.33301 -72.501 -10s-35.5 -18.834 -47.5 -36.501s-20.667 -41.834 -26 -72.501s-8 -69.667 -8 -117s2.66699 -86.333 8 -117s14.166 -55 26.499 -73s28.333 -30.5 48 -37.5s43.834 -10.5 72.501 -10.5
c28 0 51.833 3.5 71.5 10.5s35.5 19.5 47.5 37.5s20.667 42.333 26 73s8 69.667 8 117z" />
    <glyph glyph-name="afii10033" unicode="&#xcf;" horiz-adv-x="742" 
d="M502 0v598h-262v-598h-169v750h599v-750h-168z" />
    <glyph glyph-name="afii10033" unicode="&#x41f;" horiz-adv-x="742" 
d="M502 0v598h-262v-598h-169v750h599v-750h-168z" />
    <glyph glyph-name="afii10034" unicode="&#xd0;" horiz-adv-x="664" 
d="M633 493c0 -39.333 -5.50098 -74.5 -16.501 -105.5s-28.167 -57.167 -51.5 -78.5s-53.666 -37.5 -90.999 -48.5s-82 -16.5 -134 -16.5h-100v-244h-169v750h269c104 0 178.833 -21 224.5 -63s68.5 -106.667 68.5 -194zM458.999 494
c0 22.667 -2.16895 41.3311 -6.50195 55.998s-11.166 26.334 -20.499 35.001s-21.5 14.834 -36.5 18.501s-33.5 5.5 -55.5 5.5h-100v-230h100c20.667 0 38.5 1.5 53.5 4.5s27.333 8.83301 37 17.5s16.834 20.5 21.501 35.5s7 34.167 7 57.5z" />
    <glyph glyph-name="afii10034" unicode="&#x420;" horiz-adv-x="664" 
d="M633 493c0 -39.333 -5.50098 -74.5 -16.501 -105.5s-28.167 -57.167 -51.5 -78.5s-53.666 -37.5 -90.999 -48.5s-82 -16.5 -134 -16.5h-100v-244h-169v750h269c104 0 178.833 -21 224.5 -63s68.5 -106.667 68.5 -194zM458.999 494
c0 22.667 -2.16895 41.3311 -6.50195 55.998s-11.166 26.334 -20.499 35.001s-21.5 14.834 -36.5 18.501s-33.5 5.5 -55.5 5.5h-100v-230h100c20.667 0 38.5 1.5 53.5 4.5s27.333 8.83301 37 17.5s16.834 20.5 21.501 35.5s7 34.167 7 57.5z" />
    <glyph glyph-name="afii10035" unicode="&#xd1;" horiz-adv-x="597" 
d="M548 587c-19.333 7.33301 -41.667 13.335 -67 18.002s-52 7 -80 7c-34 0 -62.5 -3.83301 -85.5 -11.5s-41.667 -20.5 -56 -38.5s-24.5 -41.833 -30.5 -71.5s-9 -66.834 -9 -111.501c0 -47.333 3.16699 -86.5 9.5 -117.5s16.666 -56 30.999 -75s33.333 -32.333 57 -40
s52.5 -11.5 86.5 -11.5c28 0 54 2.5 78 7.5s46.667 12.167 68 21.5l17 -137c-24.667 -12 -53.667 -21.833 -87 -29.5s-66.666 -11.5 -99.999 -11.5c-114 0 -198.667 32 -254 96s-83 163.333 -83 298c0 124.667 28 219.667 84 285s144 98 264 98
c14.667 0 30 -0.833008 46 -2.5s31.667 -3.83398 47 -6.50098s30 -6 44 -10s26.333 -8 37 -12z" />
    <glyph glyph-name="afii10035" unicode="&#x421;" horiz-adv-x="597" 
d="M548 587c-19.333 7.33301 -41.667 13.335 -67 18.002s-52 7 -80 7c-34 0 -62.5 -3.83301 -85.5 -11.5s-41.667 -20.5 -56 -38.5s-24.5 -41.833 -30.5 -71.5s-9 -66.834 -9 -111.501c0 -47.333 3.16699 -86.5 9.5 -117.5s16.666 -56 30.999 -75s33.333 -32.333 57 -40
s52.5 -11.5 86.5 -11.5c28 0 54 2.5 78 7.5s46.667 12.167 68 21.5l17 -137c-24.667 -12 -53.667 -21.833 -87 -29.5s-66.666 -11.5 -99.999 -11.5c-114 0 -198.667 32 -254 96s-83 163.333 -83 298c0 124.667 28 219.667 84 285s144 98 264 98
c14.667 0 30 -0.833008 46 -2.5s31.667 -3.83398 47 -6.50098s30 -6 44 -10s26.333 -8 37 -12z" />
    <glyph glyph-name="afii10036" unicode="&#xd2;" horiz-adv-x="597" 
d="M383 598v-598h-170v598h-201l4 152h565l4 -152h-202z" />
    <glyph glyph-name="afii10036" unicode="&#x422;" horiz-adv-x="597" 
d="M383 598v-598h-170v598h-201l4 152h565l4 -152h-202z" />
    <glyph glyph-name="afii10039" unicode="&#xd5;" horiz-adv-x="712" 
d="M475 392l218 -392h-191l-109 214l-34 73h-3l-35 -74l-107 -213h-195l213 388l-208 362h200l97 -187l36 -72h3l35 72l97 187h192z" />
    <glyph glyph-name="afii10039" unicode="&#x425;" horiz-adv-x="712" 
d="M475 392l218 -392h-191l-109 214l-34 73h-3l-35 -74l-107 -213h-195l213 388l-208 362h200l97 -187l36 -72h3l35 72l97 187h192z" />
    <glyph glyph-name="afii10046" unicode="&#xdc;" horiz-adv-x="664" 
d="M633 257c0 -87.333 -22.832 -152 -68.499 -194s-120.5 -63 -224.5 -63h-269v750h169v-244h100c52 0 96.667 -5.5 134 -16.5s67.666 -27.167 90.999 -48.5s40.5 -47.5 51.5 -78.5s16.5 -66.167 16.5 -105.5zM459.001 256c0 23.333 -2.33105 42.498 -6.99805 57.498
s-11.834 26.667 -21.501 35s-22 14.166 -37 17.499s-32.833 5 -53.5 5h-100v-230h100c22 0 40.5 1.83301 55.5 5.5s27.167 9.83398 36.5 18.501s16.166 20.334 20.499 35.001s6.5 33.334 6.5 56.001z" />
    <glyph glyph-name="afii10046" unicode="&#x42c;" horiz-adv-x="664" 
d="M633 257c0 -87.333 -22.832 -152 -68.499 -194s-120.5 -63 -224.5 -63h-269v750h169v-244h100c52 0 96.667 -5.5 134 -16.5s67.666 -27.167 90.999 -48.5s40.5 -47.5 51.5 -78.5s16.5 -66.167 16.5 -105.5zM459.001 256c0 23.333 -2.33105 42.498 -6.99805 57.498
s-11.834 26.667 -21.501 35s-22 14.166 -37 17.499s-32.833 5 -53.5 5h-100v-230h100c22 0 40.5 1.83301 55.5 5.5s27.167 9.83398 36.5 18.501s16.166 20.334 20.499 35.001s6.5 33.334 6.5 56.001z" />
    <glyph glyph-name="afii10047" unicode="&#xdd;" horiz-adv-x="597" 
d="M45 732c10.667 4 22.998 8 36.998 12s28.667 7.33301 44 10s30.833 4.83398 46.5 6.50098s31.167 2.5 46.5 2.5c120 0 208 -32.667 264 -98s84 -160.333 84 -285c0 -134.667 -27.667 -234 -83 -298s-140 -96 -254 -96c-33.333 0 -66.666 3.83301 -99.999 11.5
s-62.333 17.5 -87 29.5l17 137c21.333 -9.33301 44 -16.5 68 -21.5s50 -7.5 78 -7.5c30 0 56 3 78 9s40.167 16 54.5 30s25.5 32.667 33.5 56s13.333 52.666 16 87.999h-295v134h294c-3.33301 30 -9 55.167 -17 75.5s-19 36.833 -33 49.5s-31.667 21.667 -53 27
s-46.333 8 -75 8c-28 0 -54.667 -2.33301 -80 -7s-47.666 -10.667 -66.999 -18z" />
    <glyph glyph-name="afii10047" unicode="&#x42d;" horiz-adv-x="597" 
d="M45 732c10.667 4 22.998 8 36.998 12s28.667 7.33301 44 10s30.833 4.83398 46.5 6.50098s31.167 2.5 46.5 2.5c120 0 208 -32.667 264 -98s84 -160.333 84 -285c0 -134.667 -27.667 -234 -83 -298s-140 -96 -254 -96c-33.333 0 -66.666 3.83301 -99.999 11.5
s-62.333 17.5 -87 29.5l17 137c21.333 -9.33301 44 -16.5 68 -21.5s50 -7.5 78 -7.5c30 0 56 3 78 9s40.167 16 54.5 30s25.5 32.667 33.5 56s13.333 52.666 16 87.999h-295v134h294c-3.33301 30 -9 55.167 -17 75.5s-19 36.833 -33 49.5s-31.667 21.667 -53 27
s-46.333 8 -75 8c-28 0 -54.667 -2.33301 -80 -7s-47.666 -10.667 -66.999 -18z" />
    <glyph glyph-name="afii10049" unicode="&#xdf;" horiz-adv-x="680" 
d="M120 517c0 80.667 23.1689 139.667 69.502 177s116.166 56 209.499 56h275v-750h-169v280h-106l-131 -280h-197l175 313c-40.667 12.667 -71.834 36.667 -93.501 72s-32.5 79.333 -32.5 132zM296.002 510c0 -40.667 8.16699 -68.167 24.5 -82.5
s43.166 -21.5 80.499 -21.5h104v204h-107c-37.333 0 -63.666 -7.16699 -78.999 -21.5s-23 -40.5 -23 -78.5z" />
    <glyph glyph-name="afii10049" unicode="&#x42f;" horiz-adv-x="680" 
d="M120 517c0 80.667 23.1689 139.667 69.502 177s116.166 56 209.499 56h275v-750h-169v280h-106l-131 -280h-197l175 313c-40.667 12.667 -71.834 36.667 -93.501 72s-32.5 79.333 -32.5 132zM296.002 510c0 -40.667 8.16699 -68.167 24.5 -82.5
s43.166 -21.5 80.499 -21.5h104v204h-107c-37.333 0 -63.666 -7.16699 -78.999 -21.5s-23 -40.5 -23 -78.5z" />
    <glyph glyph-name="afii10065" unicode="&#xe0;" horiz-adv-x="581" 
d="M394 58l-3.00098 1.00098c-18.667 -22 -42 -39 -70 -51s-59.333 -18 -94 -18c-57.333 0 -103 16.5 -137 49.5s-51 83.5 -51 151.5c0 28 4.83301 53.667 14.5 77s23.667 43.166 42 59.499s40.833 29.166 67.5 38.499s57.334 14 92.001 14c22.667 0 43.667 -1.5 63 -4.5
s37 -7.16699 53 -12.5v35c0 30.667 -8.66699 53.167 -26 67.5s-47 21.5 -89 21.5c-33.333 0 -62.5 -2.66699 -87.5 -8s-51.5 -13.666 -79.5 -24.999l-13 124c30.667 13.333 63.167 23.333 97.5 30s71.166 10 110.499 10c44.667 0 82.334 -4.83301 113.001 -14.5
s55.5 -24.5 74.5 -44.5s32.667 -45.333 41 -76s12.5 -66.667 12.5 -108v-375h-119zM370.999 260.001c-7.33301 3.33301 -18.332 6.33203 -32.999 8.99902s-32.334 4 -53.001 4c-67.333 0 -101 -26.667 -101 -80c0 -30 8 -50.833 24 -62.5s36.667 -17.5 62 -17.5
c13.333 0 26 1.83301 38 5.5s22.667 8.83398 32 15.501s16.833 14.167 22.5 22.5s8.5 17.5 8.5 27.5v76z" />
    <glyph glyph-name="afii10065" unicode="&#x430;" horiz-adv-x="581" 
d="M394 58l-3.00098 1.00098c-18.667 -22 -42 -39 -70 -51s-59.333 -18 -94 -18c-57.333 0 -103 16.5 -137 49.5s-51 83.5 -51 151.5c0 28 4.83301 53.667 14.5 77s23.667 43.166 42 59.499s40.833 29.166 67.5 38.499s57.334 14 92.001 14c22.667 0 43.667 -1.5 63 -4.5
s37 -7.16699 53 -12.5v35c0 30.667 -8.66699 53.167 -26 67.5s-47 21.5 -89 21.5c-33.333 0 -62.5 -2.66699 -87.5 -8s-51.5 -13.666 -79.5 -24.999l-13 124c30.667 13.333 63.167 23.333 97.5 30s71.166 10 110.499 10c44.667 0 82.334 -4.83301 113.001 -14.5
s55.5 -24.5 74.5 -44.5s32.667 -45.333 41 -76s12.5 -66.667 12.5 -108v-375h-119zM370.999 260.001c-7.33301 3.33301 -18.332 6.33203 -32.999 8.99902s-32.334 4 -53.001 4c-67.333 0 -101 -26.667 -101 -80c0 -30 8 -50.833 24 -62.5s36.667 -17.5 62 -17.5
c13.333 0 26 1.83301 38 5.5s22.667 8.83398 32 15.501s16.833 14.167 22.5 22.5s8.5 17.5 8.5 27.5v76z" />
    <glyph glyph-name="afii10076" unicode="&#xea;" horiz-adv-x="617" 
d="M222 387h79l126 219h172l-165 -275l171 -331h-175l-129 261h-79v-261h-155v606h155v-219z" />
    <glyph glyph-name="afii10076" unicode="&#x43a;" horiz-adv-x="617" 
d="M222 387h79l126 219h172l-165 -275l171 -331h-175l-129 261h-79v-261h-155v606h155v-219z" />
    <glyph glyph-name="afii10077" unicode="&#xeb;" horiz-adv-x="652" 
d="M466 0l-118 388l-21 78h-3l-22 -78l-116 -388h-170l220 606h180l220 -606h-170z" />
    <glyph glyph-name="afii10077" unicode="&#x43b;" horiz-adv-x="652" 
d="M466 0l-118 388l-21 78h-3l-22 -78l-116 -388h-170l220 606h180l220 -606h-170z" />
    <glyph glyph-name="afii10078" unicode="&#xec;" horiz-adv-x="890" 
d="M367 0l-78 395l-13 80h-3l-14 -80l-73 -395h-156l145 606h190l71 -362l14 -81h3l13 81l68 362h190l136 -606h-152l-68 396l-12 80h-3l-15 -79l-81 -397h-162z" />
    <glyph glyph-name="afii10078" unicode="&#x43c;" horiz-adv-x="890" 
d="M367 0l-78 395l-13 80h-3l-14 -80l-73 -395h-156l145 606h190l71 -362l14 -81h3l13 81l68 362h190l136 -606h-152l-68 396l-12 80h-3l-15 -79l-81 -397h-162z" />
    <glyph glyph-name="afii10080" unicode="&#xee;" horiz-adv-x="624" 
d="M590 301c0 -56 -5.33301 -103.833 -16 -143.5s-27.334 -72.167 -50.001 -97.5s-51.5 -44 -86.5 -56s-76.5 -18 -124.5 -18s-89.5 6 -124.5 18s-63.833 30.667 -86.5 56s-39.5 57.833 -50.5 97.5s-16.5 87.5 -16.5 143.5c0 110.667 22.333 191 67 241s115 75 211 75
c48 0 89.5 -6 124.5 -18s63.833 -30.833 86.5 -56.5s39.334 -58.5 50.001 -98.5s16 -87.667 16 -143zM196 301c0 -37.333 2.16797 -68.167 6.50098 -92.5s11.166 -43.5 20.499 -57.5s21.333 -23.833 36 -29.5s32.667 -8.5 54 -8.5s39.333 2.83301 54 8.5
s26.667 15.667 36 30s16 33.5 20 57.5s6 54.667 6 92c0 36.667 -2 67.167 -6 91.5s-10.667 43.666 -20 57.999s-21.333 24.333 -36 30s-32.667 8.5 -54 8.5s-39.5 -2.83301 -54.5 -8.5s-27.167 -15.667 -36.5 -30s-16 -33.666 -20 -57.999s-6 -54.833 -6 -91.5z" />
    <glyph glyph-name="afii10080" unicode="&#x43e;" horiz-adv-x="624" 
d="M590 301c0 -56 -5.33301 -103.833 -16 -143.5s-27.334 -72.167 -50.001 -97.5s-51.5 -44 -86.5 -56s-76.5 -18 -124.5 -18s-89.5 6 -124.5 18s-63.833 30.667 -86.5 56s-39.5 57.833 -50.5 97.5s-16.5 87.5 -16.5 143.5c0 110.667 22.333 191 67 241s115 75 211 75
c48 0 89.5 -6 124.5 -18s63.833 -30.833 86.5 -56.5s39.334 -58.5 50.001 -98.5s16 -87.667 16 -143zM196 301c0 -37.333 2.16797 -68.167 6.50098 -92.5s11.166 -43.5 20.499 -57.5s21.333 -23.833 36 -29.5s32.667 -8.5 54 -8.5s39.333 2.83301 54 8.5
s26.667 15.667 36 30s16 33.5 20 57.5s6 54.667 6 92c0 36.667 -2 67.167 -6 91.5s-10.667 43.666 -20 57.999s-21.333 24.333 -36 30s-32.667 8.5 -54 8.5s-39.5 -2.83301 -54.5 -8.5s-27.167 -15.667 -36.5 -30s-16 -33.666 -20 -57.999s-6 -54.833 -6 -91.5z" />
    <glyph glyph-name="afii10082" unicode="&#xf0;" horiz-adv-x="630" 
d="M596 304c0 -53.333 -5.66895 -99.667 -17.002 -139s-27.166 -72 -47.499 -98s-45 -45.333 -74 -58s-61.167 -19 -96.5 -19c-27.333 0 -52.833 3.33301 -76.5 10s-45.167 19.667 -64.5 39l-3 -1l2 -81v-111h-157v756l109 7l30 -53c21.333 19.333 46 34.333 74 45
s58 16 90 16c37.333 0 70.333 -5.5 99 -16.5s52.834 -28.667 72.501 -53s34.5 -56.5 44.5 -96.5s15 -89 15 -147zM434.998 304.999c0 34.667 -2.16797 63.333 -6.50098 86s-11 40.5 -20 53.5s-20.667 22 -35 27s-31.166 7.5 -50.499 7.5
c-22.667 0 -42.834 -4.33301 -60.501 -13s-32.167 -20.667 -43.5 -36v-260c9.33301 -14.667 22.333 -27 39 -37s37.334 -15 62.001 -15c17.333 0 33 2.5 47 7.5s26 14.333 36 28s17.833 32.667 23.5 57s8.5 55.833 8.5 94.5z" />
    <glyph glyph-name="afii10082" unicode="&#x440;" horiz-adv-x="630" 
d="M596 304c0 -53.333 -5.66895 -99.667 -17.002 -139s-27.166 -72 -47.499 -98s-45 -45.333 -74 -58s-61.167 -19 -96.5 -19c-27.333 0 -52.833 3.33301 -76.5 10s-45.167 19.667 -64.5 39l-3 -1l2 -81v-111h-157v756l109 7l30 -53c21.333 19.333 46 34.333 74 45
s58 16 90 16c37.333 0 70.333 -5.5 99 -16.5s52.834 -28.667 72.501 -53s34.5 -56.5 44.5 -96.5s15 -89 15 -147zM434.998 304.999c0 34.667 -2.16797 63.333 -6.50098 86s-11 40.5 -20 53.5s-20.667 22 -35 27s-31.166 7.5 -50.499 7.5
c-22.667 0 -42.834 -4.33301 -60.501 -13s-32.167 -20.667 -43.5 -36v-260c9.33301 -14.667 22.333 -27 39 -37s37.334 -15 62.001 -15c17.333 0 33 2.5 47 7.5s26 14.333 36 28s17.833 32.667 23.5 57s8.5 55.833 8.5 94.5z" />
    <glyph glyph-name="afii10083" unicode="&#xf1;" horiz-adv-x="493" 
d="M449 458c-15.333 5.33301 -31.998 9.83301 -49.998 13.5s-35.667 5.5 -53 5.5c-28 0 -51.667 -3.16699 -71 -9.5s-34.833 -16.333 -46.5 -30s-20 -31.667 -25 -54s-7.5 -49.5 -7.5 -81.5c0 -65.333 12.667 -111.833 38 -139.5s61.666 -41.5 108.999 -41.5
c40.667 0 77.334 7.66699 110.001 23l11 -121c-18 -11.333 -40.167 -20 -66.5 -26s-55.833 -9 -88.5 -9c-90 0 -158.167 25.667 -204.5 77s-69.5 130.333 -69.5 237c0 50 5.33301 94.5 16 133.5s27.167 71.833 49.5 98.5s51 47 86 61s76.833 21 125.5 21
c25.333 0 51.166 -2.5 77.499 -7.5s49.166 -11.167 68.499 -18.5z" />
    <glyph glyph-name="afii10083" unicode="&#x441;" horiz-adv-x="493" 
d="M449 458c-15.333 5.33301 -31.998 9.83301 -49.998 13.5s-35.667 5.5 -53 5.5c-28 0 -51.667 -3.16699 -71 -9.5s-34.833 -16.333 -46.5 -30s-20 -31.667 -25 -54s-7.5 -49.5 -7.5 -81.5c0 -65.333 12.667 -111.833 38 -139.5s61.666 -41.5 108.999 -41.5
c40.667 0 77.334 7.66699 110.001 23l11 -121c-18 -11.333 -40.167 -20 -66.5 -26s-55.833 -9 -88.5 -9c-90 0 -158.167 25.667 -204.5 77s-69.5 130.333 -69.5 237c0 50 5.33301 94.5 16 133.5s27.167 71.833 49.5 98.5s51 47 86 61s76.833 21 125.5 21
c25.333 0 51.166 -2.5 77.499 -7.5s49.166 -11.167 68.499 -18.5z" />
    <glyph glyph-name="afii10085" unicode="&#xf3;" horiz-adv-x="653" 
d="M181 -52c21.333 0 39.666 3.83301 54.999 11.5s28 23.167 38 46.5l3 8l-261 592h177l132 -370l26 -76h3l19 78l99 368h165l-208 -601c-22.667 -62 -52 -106.333 -88 -133s-80 -40 -132 -40c-18.667 0 -36.667 1.5 -54 4.5s-33.666 7.83301 -48.999 14.5l12 110
c21.333 -8.66699 42.333 -13 63 -13z" />
    <glyph glyph-name="afii10085" unicode="&#x443;" horiz-adv-x="653" 
d="M181 -52c21.333 0 39.666 3.83301 54.999 11.5s28 23.167 38 46.5l3 8l-261 592h177l132 -370l26 -76h3l19 78l99 368h165l-208 -601c-22.667 -62 -52 -106.333 -88 -133s-80 -40 -132 -40c-18.667 0 -36.667 1.5 -54 4.5s-33.666 7.83301 -48.999 14.5l12 110
c21.333 -8.66699 42.333 -13 63 -13z" />
    <glyph glyph-name="afii10087" unicode="&#xf5;" horiz-adv-x="624" 
d="M342 161l-34 73h-3l-34 -74l-78 -160h-171l181 306l-178 300h180l76 -153l34 -73h3l33 73l75 153h172l-170 -296l175 -310h-180z" />
    <glyph glyph-name="afii10087" unicode="&#x445;" horiz-adv-x="624" 
d="M342 161l-34 73h-3l-34 -74l-78 -160h-171l181 306l-178 300h180l76 -153l34 -73h3l33 73l75 153h172l-170 -296l175 -310h-180z" />
    <glyph glyph-name="Amacron" unicode="&#x100;" horiz-adv-x="734" 
d="M498 146h-272l-42 -146h-178l259 750h201l262 -750h-188zM342 544l-75 -257h191l-72 257l-20 79h-3zM527 804h-320v78h320v-78z" />
    <glyph glyph-name="amacron" unicode="&#x101;" horiz-adv-x="581" 
d="M394 58l-3.00098 1.00098c-18.667 -22 -42 -39 -70 -51s-59.333 -18 -94 -18c-57.333 0 -103 16.5 -137 49.5s-51 83.5 -51 151.5c0 28 4.83301 53.667 14.5 77s23.667 43.166 42 59.499s40.833 29.166 67.5 38.499s57.334 14 92.001 14c22.667 0 43.667 -1.5 63 -4.5
s37 -7.16699 53 -12.5v35c0 30.667 -8.66699 53.167 -26 67.5s-47 21.5 -89 21.5c-33.333 0 -62.5 -2.66699 -87.5 -8s-51.5 -13.666 -79.5 -24.999l-13 124c30.667 13.333 63.167 23.333 97.5 30s71.166 10 110.499 10c44.667 0 82.334 -4.83301 113.001 -14.5
s55.5 -24.5 74.5 -44.5s32.667 -45.333 41 -76s12.5 -66.667 12.5 -108v-375h-119zM370.999 260.001c-7.33301 3.33301 -18.332 6.33203 -32.999 8.99902s-32.334 4 -53.001 4c-67.333 0 -101 -26.667 -101 -80c0 -30 8 -50.833 24 -62.5s36.667 -17.5 62 -17.5
c13.333 0 26 1.83301 38 5.5s22.667 8.83398 32 15.501s16.833 14.167 22.5 22.5s8.5 17.5 8.5 27.5v76zM447 684h-320v96h320v-96z" />
    <glyph glyph-name="Abreve" unicode="&#x102;" horiz-adv-x="734" 
d="M498 146h-272l-42 -146h-178l259 750h201l262 -750h-188zM342 544l-75 -257h191l-72 257l-20 79h-3zM536 913c0 -40.667 -13.5 -72 -40.5 -94s-70.833 -33 -131.5 -33c-62 0 -106 11.167 -132 33.5s-39 53.5 -39 93.5h114c0 -17.333 5.5 -29.5 16.5 -36.5
s24.833 -10.5 41.5 -10.5c16 0 29.333 3.5 40 10.5s16 19.167 16 36.5h115z" />
    <glyph glyph-name="IJ" unicode="&#x132;" horiz-adv-x="872" 
d="M83 750h172v-750h-172v750zM801 275c0 -52.667 -6.83301 -97.334 -20.5 -134.001s-33.334 -66.5 -59.001 -89.5s-57 -39.667 -94 -50s-78.5 -15.5 -124.5 -15.5c-31.333 0 -59.166 2.83301 -83.499 8.5s-46.166 13.5 -65.499 23.5l9 142
c13.333 -8 29.666 -14.333 48.999 -19s41 -7 65 -7c50 0 87.833 11.333 113.5 34s38.5 59.334 38.5 110.001v472h172v-475z" />
    <glyph glyph-name="ij" unicode="&#x133;" horiz-adv-x="626" 
d="M83 0v602l159 7v-609h-159zM251 737c0 -22 -7 -38.501 -21 -49.501s-36.333 -16.5 -67 -16.5c-30 0 -52.333 4.83301 -67 14.5s-22 26.834 -22 51.501c0 44.667 29.667 67 89 67c30.667 0 53 -5.66699 67 -17s21 -28 21 -50zM555 4.99902
c0 -32.667 -4.66895 -59.833 -14.002 -81.5s-21.833 -39 -37.5 -52s-34 -22.333 -55 -28s-43.5 -8.5 -67.5 -8.5c-14.667 0 -29.167 1.33301 -43.5 4s-27.166 6 -38.499 10l7 109c12.667 -4 25 -6 37 -6c16.667 0 30.334 4.5 41.001 13.5s16 23.5 16 43.5v593l155 7v-604z
M562.998 738c0 -22.667 -7 -39.5 -21 -50.5s-36.333 -16.5 -67 -16.5c-30 0 -52.167 5 -66.5 15s-21.5 27.333 -21.5 52c0 44.667 29.333 67 88 67c30.667 0 53 -5.83301 67 -17.5s21 -28.167 21 -49.5z" />
    <glyph glyph-name="Ldot" unicode="&#x13f;" horiz-adv-x="568" 
d="M550 152l-4 -152h-475v750h170v-598h309zM414 758c24.667 0 42.333 -5.66797 53 -17.001s16 -26.666 16 -45.999c0 -18.667 -8.5 -38 -25.5 -58s-36.167 -38.667 -57.5 -56l-36 17l21 58c-24.667 8 -37 24.667 -37 50c0 14 5 26.167 15 36.5s27 15.5 51 15.5z" />
    <glyph glyph-name="Scedilla" unicode="&#x15e;" horiz-adv-x="578" 
d="M549 225c0 -74.667 -24.333 -133.163 -73 -175.496s-117 -63.5 -205 -63.5c-44 0 -85.5 5 -124.5 15s-74.833 23.667 -107.5 41l22 145c33.333 -17.333 67 -30.833 101 -40.5s69.667 -14.5 107 -14.5c41.333 0 71.333 7.16699 90 21.5s28 34.5 28 60.5
c0 19.333 -8.5 35 -25.5 47s-38.333 22.833 -64 32.5l-83 30c-29.667 10.333 -57.334 24.166 -83.001 41.499s-47 39.166 -64 65.499s-25.5 60.5 -25.5 102.5c0 32 5.33301 61.833 16 89.5s27 52 49 73s50.167 37.5 84.5 49.5s75.166 18 122.499 18
c36.667 0 73.5 -3.5 110.5 -10.5s70.167 -16.5 99.5 -28.5l-21 -142c-31.333 10 -62.166 17.833 -92.499 23.5s-59.833 8.5 -88.5 8.5c-23.333 0 -42.5 -1.83301 -57.5 -5.5s-27 -8.83398 -36 -15.501s-15.333 -14.334 -19 -23.001s-5.5 -18 -5.5 -28
c0 -19.333 8.5 -34.833 25.5 -46.5s38.333 -22.167 64 -31.5l83 -29c29.667 -10 57.334 -23.5 83.001 -40.5s47 -39 64 -66s25.5 -61.5 25.5 -103.5zM284 -33.9961c31.333 0 53.667 -5.16895 67 -15.502s20 -25.166 20 -44.499c0 -9.33301 -2.83301 -18.666 -8.5 -27.999
s-13.334 -18.833 -23.001 -28.5s-20.667 -19.167 -33 -28.5s-25.166 -18 -38.499 -26l-47 16l26 58c-31.333 6.66699 -47 22.667 -47 48c0 13.333 6 24.833 18 34.5s34 14.5 66 14.5z" />
    <glyph glyph-name="scedilla" unicode="&#x15f;" horiz-adv-x="497" 
d="M465 190c0 -30 -4.33496 -57.498 -13.002 -82.498s-22.334 -46.333 -41.001 -64s-42.667 -31.334 -72 -41.001s-64.333 -14.5 -105 -14.5c-36.667 0 -71.167 3.5 -103.5 10.5s-61.166 17.5 -86.499 31.5l16 128c25.333 -14.667 54 -25.5 86 -32.5s61 -10.5 87 -10.5
c31.333 0 53.833 5.66699 67.5 17s20.5 26 20.5 44c0 16 -7 28.5 -21 37.5s-31.333 17 -52 24l-67.5 22c-24.333 7.66699 -46.833 18.167 -67.5 31.5s-38 30.833 -52 52.5s-21 50.167 -21 85.5c0 27.333 4.66699 52.5 14 75.5s23.5 42.667 42.5 59
s42.833 29.166 71.5 38.499s62.667 14 102 14c30.667 0 60.667 -2.83301 90 -8.5s56.666 -13.834 81.999 -24.501l-13 -127c-25.333 10.667 -53 18.5 -83 23.5s-56.333 7.5 -79 7.5c-25.333 0 -44.833 -4.66699 -58.5 -14s-20.5 -21.666 -20.5 -36.999
s6.83301 -27.166 20.5 -35.499s30.834 -15.833 51.501 -22.5l66.5 -21c23.667 -7.33301 45.834 -17.5 66.501 -30.5s37.834 -30.333 51.501 -52s20.5 -49.834 20.5 -84.501zM251.998 -33.998c31.333 0 53.667 -5.16895 67 -15.502s20 -25.166 20 -44.499
c0 -9.33301 -2.83301 -18.666 -8.5 -27.999s-13.334 -18.833 -23.001 -28.5s-20.667 -19.167 -33 -28.5s-25.166 -18 -38.499 -26l-47 16l26 58c-31.333 6.66699 -47 22.667 -47 48c0 13.333 6 24.833 18 34.5s34 14.5 66 14.5z" />
    <glyph glyph-name="zdotaccent" unicode="&#x17c;" horiz-adv-x="538" 
d="M269 194l-48 -62l1 -3h278l-4 -129h-454v109l222 303l48 63l-1 2h-261l5 129h436v-108zM361 738c0 -22.667 -7 -39.5 -21 -50.5s-36.333 -16.5 -67 -16.5c-30 0 -52.167 5 -66.5 15s-21.5 27.333 -21.5 52c0 44.667 29.333 67 88 67c30.667 0 53 -5.83301 67 -17.5
s21 -28.167 21 -49.5z" />
    <glyph glyph-name="Zcaron" unicode="&#x17d;" horiz-adv-x="618" 
d="M35 0v110l291 422l46 64l-1 2h-328l5 152h528v-123l-284 -410l-46 -63l1 -3h332l-3 -151h-541zM234 792l-104 121h135l52 -60l53 60h135l-106 -121h-165z" />
    <glyph glyph-name="zcaron" unicode="&#x17e;" horiz-adv-x="538" 
d="M269 194l-48 -62l1 -3h278l-4 -129h-454v109l222 303l48 63l-1 2h-261l5 129h436v-108zM205 656l-97 145h115l51 -86l50 86h117l-99 -145h-137z" />
    <glyph glyph-name="AEacute" unicode="&#x1fc;" horiz-adv-x="1064" 
d="M687 601l9 -149h266v-134h-257l10 -171h315l-4 -147h-472l-9 148h-258l-69 -148h-199l404 750h592l3 -149h-331zM483 563l-131 -277h185l-15 269l-3 81l-3 1zM856 913l-139 -121h-124l65 121h198z" />
    <glyph glyph-name="aeacute" unicode="&#x1fd;" horiz-adv-x="909" 
d="M284 616c45.333 0 82.166 -5.33984 110.499 -16.0068s50.5 -26.667 66.5 -48c21.333 20.667 46.166 36.667 74.499 48s61.5 17 99.5 17c35.333 0 67.833 -5.66699 97.5 -17s55 -28.666 76 -51.999s37.333 -52.666 49 -87.999s17.5 -77 17.5 -125
c0 -11.333 -0.333008 -23.666 -1 -36.999s-1.66699 -25.333 -3 -36h-353c4 -50.667 18.833 -86.5 44.5 -107.5s64.5 -31.5 116.5 -31.5c28.667 0 56.5 2.83301 83.5 8.5s53.167 13.5 78.5 23.5l17 -127c-25.333 -11.333 -55 -20.666 -89 -27.999s-70.333 -11 -109 -11
c-57.333 0 -103.833 8 -139.5 24s-64.167 37.333 -85.5 64c-21.333 -28 -48.333 -49.667 -81 -65s-70 -23 -112 -23c-65.333 0 -115.5 16.333 -150.5 49s-52.5 83.334 -52.5 152.001c0 28 4.83301 53.5 14.5 76.5s23.667 42.833 42 59.5s40.833 29.5 67.5 38.5
s57.334 13.5 92.001 13.5c23.333 0 44.333 -1.5 63 -4.5s36.334 -6.83301 53.001 -11.5v35c0 30.667 -8.66699 53.167 -26 67.5s-47 21.5 -89 21.5c-33.333 0 -62.5 -2.66699 -87.5 -8s-51.5 -13.666 -79.5 -24.999l-13 124c31.333 12.667 64 22.334 98 29.001
s70.667 10 110 10zM371 258.993c-7.33301 3.33301 -18.332 6.33301 -32.999 9s-32.334 4 -53.001 4c-67.333 0 -101 -26.667 -101 -80c0 -30 8 -50.833 24 -62.5s36.667 -17.5 62 -17.5c28.667 0 52.667 7.33301 72 22s29 34 29 58v67zM733.001 364.993
c-1.33301 44.667 -11.5 76.333 -30.5 95s-44.5 28 -76.5 28c-37.333 0 -64.333 -9.5 -81 -28.5s-26.667 -50.5 -30 -94.5h218zM616.001 800.992l-120 -145h-117l59 145h178z" />
    <glyph glyph-name="Scommaaccent" unicode="&#x218;" horiz-adv-x="578" 
d="M549 225c0 -74.667 -24.333 -133.163 -73 -175.496s-117 -63.5 -205 -63.5c-44 0 -85.5 5 -124.5 15s-74.833 23.667 -107.5 41l22 145c33.333 -17.333 67 -30.833 101 -40.5s69.667 -14.5 107 -14.5c41.333 0 71.333 7.16699 90 21.5s28 34.5 28 60.5
c0 19.333 -8.5 35 -25.5 47s-38.333 22.833 -64 32.5l-83 30c-29.667 10.333 -57.334 24.166 -83.001 41.499s-47 39.166 -64 65.499s-25.5 60.5 -25.5 102.5c0 32 5.33301 61.833 16 89.5s27 52 49 73s50.167 37.5 84.5 49.5s75.166 18 122.499 18
c36.667 0 73.5 -3.5 110.5 -10.5s70.167 -16.5 99.5 -28.5l-21 -142c-31.333 10 -62.166 17.833 -92.499 23.5s-59.833 8.5 -88.5 8.5c-23.333 0 -42.5 -1.83301 -57.5 -5.5s-27 -8.83398 -36 -15.501s-15.333 -14.334 -19 -23.001s-5.5 -18 -5.5 -28
c0 -19.333 8.5 -34.833 25.5 -46.5s38.333 -22.167 64 -31.5l83 -29c29.667 -10 57.334 -23.5 83.001 -40.5s47 -39 64 -66s25.5 -61.5 25.5 -103.5zM284 -33.9961c31.333 0 53.667 -5.16895 67 -15.502s20 -25.166 20 -44.499c0 -9.33301 -2.83301 -18.666 -8.5 -27.999
s-13.334 -18.833 -23.001 -28.5s-20.667 -19.167 -33 -28.5s-25.166 -18 -38.499 -26l-47 16l26 58c-31.333 6.66699 -47 22.667 -47 48c0 13.333 6 24.833 18 34.5s34 14.5 66 14.5z" />
    <glyph glyph-name="scommaaccent" unicode="&#x219;" horiz-adv-x="497" 
d="M465 190c0 -30 -4.33496 -57.498 -13.002 -82.498s-22.334 -46.333 -41.001 -64s-42.667 -31.334 -72 -41.001s-64.333 -14.5 -105 -14.5c-36.667 0 -71.167 3.5 -103.5 10.5s-61.166 17.5 -86.499 31.5l16 128c25.333 -14.667 54 -25.5 86 -32.5s61 -10.5 87 -10.5
c31.333 0 53.833 5.66699 67.5 17s20.5 26 20.5 44c0 16 -7 28.5 -21 37.5s-31.333 17 -52 24l-67.5 22c-24.333 7.66699 -46.833 18.167 -67.5 31.5s-38 30.833 -52 52.5s-21 50.167 -21 85.5c0 27.333 4.66699 52.5 14 75.5s23.5 42.667 42.5 59
s42.833 29.166 71.5 38.499s62.667 14 102 14c30.667 0 60.667 -2.83301 90 -8.5s56.666 -13.834 81.999 -24.501l-13 -127c-25.333 10.667 -53 18.5 -83 23.5s-56.333 7.5 -79 7.5c-25.333 0 -44.833 -4.66699 -58.5 -14s-20.5 -21.666 -20.5 -36.999
s6.83301 -27.166 20.5 -35.499s30.834 -15.833 51.501 -22.5l66.5 -21c23.667 -7.33301 45.834 -17.5 66.501 -30.5s37.834 -30.333 51.501 -52s20.5 -49.834 20.5 -84.501zM251.998 -33.998c31.333 0 53.667 -5.16895 67 -15.502s20 -25.166 20 -44.499
c0 -9.33301 -2.83301 -18.666 -8.5 -27.999s-13.334 -18.833 -23.001 -28.5s-20.667 -19.167 -33 -28.5s-25.166 -18 -38.499 -26l-47 16l26 58c-31.333 6.66699 -47 22.667 -47 48c0 13.333 6 24.833 18 34.5s34 14.5 66 14.5z" />
    <glyph glyph-name="Euro" unicode="&#x2c6;" horiz-adv-x="620" 
d="M462 266h-197.998c10.667 -53.333 31.167 -90.833 61.5 -112.5s69.833 -32.5 118.5 -32.5c22.667 0 45 2.83301 67 8.5s43 13.167 63 22.5l11 -120c-23.333 -13.333 -50.166 -23.5 -80.499 -30.5s-63.833 -10.5 -100.5 -10.5c-88.667 0 -157.834 22.333 -207.501 67
s-81.167 114 -94.5 208h-81l1 82h72v45h-72l-1 86h80c7.33301 42.667 19.5 81 36.5 115s38.667 63 65 87s56.833 42.333 91.5 55s73.667 19 117 19c34.667 0 66.167 -2.83301 94.5 -8.5s53.166 -13.167 74.499 -22.5l-29 -130c-16 6.66699 -32.333 11.5 -49 14.5
s-35.334 4.5 -56.001 4.5c-50.667 0 -90.5 -10.833 -119.5 -32.5s-49.167 -55.5 -60.5 -101.5h248l-18 -86h-241v-45h225z" />
    <glyph glyph-name="caron" unicode="&#x2c7;" horiz-adv-x="405" 
d="M135 656l-97 145h115l51 -86l50 86h117l-99 -145h-137z" />
    <glyph glyph-name="breve" unicode="&#x2d8;" horiz-adv-x="405" 
d="M362 801c0 -49.333 -12.498 -87.167 -37.498 -113.5s-65.833 -39.5 -122.5 -39.5c-58.667 0 -99.834 13.5 -123.501 40.5s-35.5 64.5 -35.5 112.5h104c0.666992 -27.333 6 -46.5 16 -57.5s23 -16.5 39 -16.5c15.333 0 28.166 5.33301 38.499 16s15.5 30 15.5 58h106z" />
    <glyph glyph-name="ogonek" unicode="&#x2db;" horiz-adv-x="405" 
d="M264 -189c-42.667 0 -73.832 8.83203 -93.499 26.499s-29.5 39.5 -29.5 65.5c0 30 9.66699 54.833 29 74.5s45.666 34.5 78.999 44.5l62 -22c-18 -5.33301 -31.333 -13 -40 -23s-13 -21.667 -13 -35c0 -11.333 3.83301 -20.166 11.5 -26.499s20.5 -9.5 38.5 -9.5
c19.333 0 36 3.66699 50 11l12 -81c-14.667 -7.33301 -30.5 -13.333 -47.5 -18s-36.5 -7 -58.5 -7z" />
    <glyph glyph-name="hungarumlaut" unicode="&#x2dd;" horiz-adv-x="405" 
d="M275 801l-108 -145h-100l50 145h158zM473 801l-121 -145h-113l74 145h160z" />
    <glyph glyph-name="Alpha" unicode="&#x391;" horiz-adv-x="734" 
d="M498 146h-272l-42 -146h-178l259 750h201l262 -750h-188zM342 544l-75 -257h191l-72 257l-20 79h-3z" />
    <glyph glyph-name="Beta" unicode="&#x392;" horiz-adv-x="691" 
d="M648 218c0 -34 -5.16602 -64.333 -15.499 -91s-26.333 -49.5 -48 -68.5s-49.334 -33.5 -83.001 -43.5s-74.167 -15 -121.5 -15h-309v750h305c82 0 143.333 -17 184 -51s61 -81 61 -141c0 -42 -9.16699 -76.167 -27.5 -102.5s-42.5 -45.833 -72.5 -58.5v-2
c84.667 -23.333 127 -82.333 127 -177zM479.001 231c0 32 -7.66699 54.833 -23 68.5s-41.333 20.5 -78 20.5h-145v-182h149c34 0 58.667 6.5 74 19.5s23 37.5 23 73.5zM460.001 528c0 30 -7 50.833 -21 62.5s-37 17.5 -69 17.5h-136v-163h140c30 0 51.833 6.33301 65.5 19
s20.5 34 20.5 64z" />
    <glyph glyph-name="Gamma" unicode="&#x393;" horiz-adv-x="592" 
d="M240 598v-598h-168v750h494l3 -152h-329z" />
    <glyph glyph-name="Epsilon" unicode="&#x395;" horiz-adv-x="619" 
d="M585 147l-4 -147h-510v750h495l3 -149h-329v-149h277v-134h-277v-171h345z" />
    <glyph glyph-name="Zeta" unicode="&#x396;" horiz-adv-x="618" 
d="M35 0v110l291 422l46 64l-1 2h-328l5 152h528v-123l-284 -410l-46 -63l1 -3h332l-3 -151h-541z" />
    <glyph glyph-name="Eta" unicode="&#x397;" horiz-adv-x="742" 
d="M502 0v307h-262v-307h-169v750h169v-291h262v291h168v-750h-168z" />
    <glyph glyph-name="Iota" unicode="&#x399;" horiz-adv-x="336" 
d="M82 750h172v-750h-172v750z" />
    <glyph glyph-name="Kappa" unicode="&#x39a;" horiz-adv-x="720" 
d="M504 0l-185 316h-79v-316h-169v750h169v-297h81l181 297h193l-224 -356l236 -394h-203z" />
    <glyph glyph-name="Lambda" unicode="&#x39b;" horiz-adv-x="710" 
d="M529 0l-148 507l-20 78h-3l-21 -78l-145 -507h-186l255 750h188l255 -750h-175z" />
    <glyph glyph-name="Mu" unicode="&#x39c;" horiz-adv-x="922" 
d="M257 750l174 -438l28 -75h3l28 75l175 438h186v-750h-154v382l2 81l-3 1l-28 -76l-154 -388h-112l-153 387l-28 76l-2 -1l1 -81v-381h-149v750h186z" />
    <glyph glyph-name="Nu" unicode="&#x39d;" horiz-adv-x="747" 
d="M558 0l-291 409l-45 67l-2 -1l1 -81v-394h-150v750h144l267 -387l45 -67l2 1l-2 80v373h149v-750h-118z" />
    <glyph glyph-name="Omicron" unicode="&#x39f;" horiz-adv-x="748" 
d="M704 375c0 -68 -6.16992 -126.5 -18.5029 -175.5s-31.833 -89.333 -58.5 -121s-60.834 -55 -102.501 -70s-91.834 -22.5 -150.501 -22.5c-115.333 0 -199.333 31.5 -252 94.5s-79 161.167 -79 294.5c0 66.667 6.33301 124.334 19 173.001s32.334 88.834 59.001 120.501
s60.834 55.167 102.501 70.5s91.834 23 150.501 23s108.834 -7.66699 150.501 -23s75.834 -38.833 102.501 -70.5s46.167 -71.834 58.5 -120.501s18.5 -106.334 18.5 -173.001zM527.997 375c0 47.333 -2.66504 86.333 -7.99805 117s-14 54.834 -26 72.501
s-27.833 29.834 -47.5 36.501s-43.834 10 -72.501 10s-52.834 -3.33301 -72.501 -10s-35.5 -18.834 -47.5 -36.501s-20.667 -41.834 -26 -72.501s-8 -69.667 -8 -117s2.66699 -86.333 8 -117s14.166 -55 26.499 -73s28.333 -30.5 48 -37.5s43.834 -10.5 72.501 -10.5
c28 0 51.833 3.5 71.5 10.5s35.5 19.5 47.5 37.5s20.667 42.333 26 73s8 69.667 8 117z" />
    <glyph glyph-name="Pi" unicode="&#x3a0;" horiz-adv-x="742" 
d="M502 0v598h-262v-598h-169v750h599v-750h-168z" />
    <glyph glyph-name="Rho" unicode="&#x3a1;" horiz-adv-x="664" 
d="M633 493c0 -39.333 -5.50098 -74.5 -16.501 -105.5s-28.167 -57.167 -51.5 -78.5s-53.666 -37.5 -90.999 -48.5s-82 -16.5 -134 -16.5h-100v-244h-169v750h269c104 0 178.833 -21 224.5 -63s68.5 -106.667 68.5 -194zM458.999 494
c0 22.667 -2.16895 41.3311 -6.50195 55.998s-11.166 26.334 -20.499 35.001s-21.5 14.834 -36.5 18.501s-33.5 5.5 -55.5 5.5h-100v-230h100c20.667 0 38.5 1.5 53.5 4.5s27.333 8.83301 37 17.5s16.834 20.5 21.501 35.5s7 34.167 7 57.5z" />
    <glyph glyph-name="Tau" unicode="&#x3a4;" horiz-adv-x="597" 
d="M383 598v-598h-170v598h-201l4 152h565l4 -152h-202z" />
    <glyph glyph-name="Upsilon" unicode="&#x3a5;" horiz-adv-x="698" 
d="M196 750l126 -284l31 -74h3l30 75l121 283h185l-255 -511v-239h-172v239l-259 511h190z" />
    <glyph glyph-name="Chi" unicode="&#x3a7;" horiz-adv-x="712" 
d="M475 392l218 -392h-191l-109 214l-34 73h-3l-35 -74l-107 -213h-195l213 388l-208 362h200l97 -187l36 -72h3l35 72l97 187h192z" />
    <glyph glyph-name="kappa" unicode="&#x3ba;" horiz-adv-x="617" 
d="M222 387h79l126 219h172l-165 -275l171 -331h-175l-129 261h-79v-261h-155v606h155v-219z" />
    <glyph glyph-name="nu" unicode="&#x3bd;" horiz-adv-x="652" 
d="M636 606l-220 -606h-180l-220 606h170l116 -388l22 -78h3l21 78l118 388h170z" />
    <glyph glyph-name="omicron" unicode="&#x3bf;" horiz-adv-x="624" 
d="M590 301c0 -56 -5.33301 -103.833 -16 -143.5s-27.334 -72.167 -50.001 -97.5s-51.5 -44 -86.5 -56s-76.5 -18 -124.5 -18s-89.5 6 -124.5 18s-63.833 30.667 -86.5 56s-39.5 57.833 -50.5 97.5s-16.5 87.5 -16.5 143.5c0 110.667 22.333 191 67 241s115 75 211 75
c48 0 89.5 -6 124.5 -18s63.833 -30.833 86.5 -56.5s39.334 -58.5 50.001 -98.5s16 -87.667 16 -143zM196 301c0 -37.333 2.16797 -68.167 6.50098 -92.5s11.166 -43.5 20.499 -57.5s21.333 -23.833 36 -29.5s32.667 -8.5 54 -8.5s39.333 2.83301 54 8.5
s26.667 15.667 36 30s16 33.5 20 57.5s6 54.667 6 92c0 36.667 -2 67.167 -6 91.5s-10.667 43.666 -20 57.999s-21.333 24.333 -36 30s-32.667 8.5 -54 8.5s-39.5 -2.83301 -54.5 -8.5s-27.167 -15.667 -36.5 -30s-16 -33.666 -20 -57.999s-6 -54.833 -6 -91.5z" />
    <glyph glyph-name="pi" unicode="&#x3c0;" horiz-adv-x="681" 
d="M413 473h-140.999v-473h-155v471c-16.667 -1.33301 -30.5 -3.33301 -41.5 -6s-20.833 -6.66699 -29.5 -12l-35 121c15.333 10 37 17.833 65 23.5s61.667 8.5 101 8.5h465v-133h-74v-304c0 -22 4.16699 -37.167 12.5 -45.5s23.833 -12.5 46.5 -12.5v-116
c-42.667 0 -77.834 3.16699 -105.501 9.5s-49.5 16.333 -65.5 30s-27.167 31.5 -33.5 53.5s-9.5 49 -9.5 81v304z" />
    <glyph glyph-name="Wgrave" unicode="&#x1e80;" horiz-adv-x="1036" 
d="M613 750l106 -504l15 -79h3l13 80l94 503h167l-177 -750h-202l-99 502l-14 80h-3l-14 -81l-98 -501h-202l-177 750h175l94 -508l13 -80h3l14 79l106 509h183zM467 794l-128 120h184l70 -120h-126z" />
    <glyph glyph-name="wgrave" unicode="&#x1e81;" horiz-adv-x="890" 
d="M529 606l81 -397l15 -79h3l12 80l68 396h152l-136 -606h-190l-68 362l-13 81h-3l-14 -81l-71 -362h-190l-145 606h156l73 -395l14 -80h3l13 80l78 395h162zM406 656l-120 145h177l60 -145h-117z" />
    <glyph glyph-name="Wacute" unicode="&#x1e82;" horiz-adv-x="1036" 
d="M613 750l106 -504l15 -79h3l13 80l94 503h167l-177 -750h-202l-99 502l-14 80h-3l-14 -81l-98 -501h-202l-177 750h175l94 -508l13 -80h3l14 79l106 509h183zM715 913l-139 -121h-124l65 121h198z" />
    <glyph glyph-name="wdieresis" unicode="&#x1e85;" horiz-adv-x="890" 
d="M529 606l81 -397l15 -79h3l12 80l68 396h152l-136 -606h-190l-68 362l-13 81h-3l-14 -81l-71 -362h-190l-145 606h156l73 -395l14 -80h3l13 80l78 395h162zM417 738c0 -21.333 -5.16699 -37.501 -15.5 -48.501s-27.166 -16.5 -50.499 -16.5c-22 0 -38.333 5 -49 15
s-16 26.667 -16 50c0 44 21.667 66 65 66c23.333 0 40.166 -5.66699 50.499 -17s15.5 -27.666 15.5 -48.999zM599 737.999c0 -21.333 -5 -37.501 -15 -48.501s-26.667 -16.5 -50 -16.5c-22 0 -38.5 5 -49.5 15s-16.5 26.667 -16.5 50c0 44 22 66 66 66
c23.333 0 40 -5.66699 50 -17s15 -27.666 15 -48.999z" />
    <glyph glyph-name="Ygrave" unicode="&#x1ef2;" horiz-adv-x="698" 
d="M196 750l126 -284l31 -74h3l30 75l121 283h185l-255 -511v-239h-172v239l-259 511h190zM306 794l-128 120h184l70 -120h-126z" />
    <glyph glyph-name="ygrave" unicode="&#x1ef3;" horiz-adv-x="653" 
d="M181 -52c21.333 0 39.666 3.83301 54.999 11.5s28 23.167 38 46.5l3 8l-261 592h177l132 -370l26 -76h3l19 78l99 368h165l-208 -601c-22.667 -62 -52 -106.333 -88 -133s-80 -40 -132 -40c-18.667 0 -36.667 1.5 -54 4.5s-33.666 7.83301 -48.999 14.5l12 110
c21.333 -8.66699 42.333 -13 63 -13zM291 656l-120 145h177l60 -145h-117z" />
    <glyph glyph-name="endash" unicode="&#x2013;" horiz-adv-x="516" 
d="M464 398v-112h-412v112h412z" />
    <glyph glyph-name="emdash" unicode="&#x2014;" horiz-adv-x="697" 
d="M646 398v-112h-594v112h594z" />
    <glyph glyph-name="bullet" unicode="&#x2022;" horiz-adv-x="414" 
d="M48 322c0 106.667 52 160 156 160c106 0 159 -53.333 159 -160c0 -107.333 -53 -161 -159 -161c-104 0 -156 53.667 -156 161z" />
    <glyph glyph-name="twodotenleader" unicode="&#x2025;" horiz-adv-x="739" 
d="M693 75c0 -27.333 -6.83301 -48.667 -20.5 -64s-36.5 -23 -68.5 -23s-55 6.5 -69 19.5s-21 35.5 -21 67.5c0 28 7 49.333 21 64s37 22 69 22s54.833 -7.33301 68.5 -22s20.5 -36 20.5 -64zM462 74.999c0 -27.333 -6.83301 -48.667 -20.5 -64s-36.5 -23 -68.5 -23
s-55 6.5 -69 19.5s-21 35.5 -21 67.5c0 28 7 49.333 21 64s37 22 69 22s54.833 -7.33301 68.5 -22s20.5 -36 20.5 -64zM224 74.998c0 -27.333 -6.83301 -48.667 -20.5 -64s-36.5 -23 -68.5 -23s-55 6.5 -69 19.5s-21 35.5 -21 67.5c0 28 7 49.333 21 64s37 22 69 22
s54.833 -7.33301 68.5 -22s20.5 -36 20.5 -64z" />
    <glyph glyph-name="guilsinglleft" unicode="&#x2039;" horiz-adv-x="394" 
d="M184 320l160 -101v-120l-313 216v11l313 216v-120z" />
    <glyph glyph-name="guilsinglright" unicode="&#x203a;" horiz-adv-x="394" 
d="M51 219l159 101l-159 102v120l312 -216v-11l-312 -216v120z" />
    <glyph glyph-name="zerosuperior" unicode="&#x2070;" horiz-adv-x="384" 
d="M360 685c0 -68.667 -13.168 -119.167 -39.501 -151.5s-69.166 -48.5 -128.499 -48.5c-60 0 -103 16.167 -129 48.5s-39 82.833 -39 151.5c0 72 13.167 124 39.5 156s69.166 48 128.499 48c58.667 0 101.334 -16 128.001 -48s40 -84 40 -156zM252.999 686
c0 24 -1.33301 43.333 -4 58s-6.5 26.334 -11.5 35.001s-11.333 14.5 -19 17.5s-16.5 4.5 -26.5 4.5c-10.667 0 -19.834 -1.5 -27.501 -4.5s-14 -8.83301 -19 -17.5s-8.66699 -20.334 -11 -35.001s-3.5 -34 -3.5 -58s1.16699 -43.333 3.5 -58s6 -26.167 11 -34.5
s11.333 -14 19 -17s16.834 -4.5 27.501 -4.5c10 0 18.833 1.5 26.5 4.5s14 8.66699 19 17s8.83301 19.833 11.5 34.5s4 34 4 58z" />
    <glyph glyph-name="foursuperior" unicode="&#x2074;" horiz-adv-x="384" 
d="M330 560v-70h-101v70h-202l-9 61l182 263h130v-238h41l-3 -86h-38zM235 710l5 80h-3l-51 -77l-45 -64l1 -3h91z" />
    <glyph glyph-name="fivesuperior" unicode="&#x2075;" horiz-adv-x="384" 
d="M353 626c0 -42.667 -12.6689 -76.832 -38.002 -102.499s-67.666 -38.5 -126.999 -38.5c-25.333 0 -50.166 2 -74.499 6s-47.166 11.333 -68.499 22l17 82c20 -8 38.833 -14.167 56.5 -18.5s38.167 -6.5 61.5 -6.5c25.333 0 42.833 4.16699 52.5 12.5
s14.5 20.166 14.5 35.499c0 26.667 -22 40 -66 40c-15.333 0 -31 -0.833008 -47 -2.5s-30 -4.16699 -42 -7.5l-41 36l20 200h258l3 -91h-177l-5 -55c9.33301 1.33301 18.666 2.33301 27.999 3s19.333 1 30 1c46 0 81.667 -9.66699 107 -29s38 -48.333 38 -87z" />
    <glyph glyph-name="oneinferior" unicode="&#x2081;" horiz-adv-x="285" 
d="M230 0h-108v270l-79 -44l-9 88l128 81h68v-395z" />
    <glyph glyph-name="twoinferior" unicode="&#x2082;" horiz-adv-x="373" 
d="M341 277c0 -18 -3.83203 -34.832 -11.499 -50.499s-18.5 -30.834 -32.5 -45.501s-30.833 -29.167 -50.5 -43.5l-65.5 -45.5v-3h159l-2 -89h-298v70l74.5 63c23 18.667 42.833 35.834 59.5 51.501s29.667 30.167 39 43.5s14 26.666 14 39.999
c0 11.333 -4.66699 20.833 -14 28.5s-25 11.5 -47 11.5c-19.333 0 -37.5 -3 -54.5 -9s-34.5 -14.333 -52.5 -25l-25 84c20 13.333 42.667 23.5 68 30.5s53.666 10.5 84.999 10.5c52.667 0 91.5 -11.333 116.5 -34s37.5 -52 37.5 -88z" />
    <glyph glyph-name="threeinferior" unicode="&#x2083;" horiz-adv-x="373" 
d="M350 118c0 -38.667 -13.668 -68.8359 -41.001 -90.5029s-71 -32.5 -131 -32.5c-28 0 -54 3 -78 9s-44.667 14 -62 24l23 81c17.333 -9.33301 35.666 -16.5 54.999 -21.5s39.666 -7.5 60.999 -7.5c45.333 0 68 14.667 68 44c0 6.66699 -1.33301 12.5 -4 17.5
s-8 9.33301 -16 13s-19.167 6.5 -33.5 8.5s-32.833 3 -55.5 3v73c22 0 39.667 0.833008 53 2.5s23.833 4.33398 31.5 8.00098s12.834 8 15.501 13s4 10.5 4 16.5c0 10 -4.83301 18 -14.5 24s-25.5 9 -47.5 9c-23.333 0 -44.166 -2.66699 -62.499 -8
s-36.166 -13.666 -53.499 -24.999l-25 79c18.667 12.667 40.5 22.667 65.5 30s51.5 11 79.5 11c51.333 0 90.833 -9.83301 118.5 -29.5s41.5 -47.167 41.5 -82.5c0 -20 -5 -36.667 -15 -50s-24 -23.666 -42 -30.999v-3c20.667 -7.33301 36.667 -17.833 48 -31.5
s17 -31.5 17 -53.5z" />
    <glyph glyph-name="franc" unicode="&#x20a3;" horiz-adv-x="618" 
d="M82 201v549h494l3 -152h-329v-152h247l-1 -143h-246v-102h76v-112h-76v-89h-168v89h-69v112h69z" />
    <glyph glyph-name="peseta" unicode="&#x20a7;" horiz-adv-x="833" 
d="M389 513c0 -42 -3.5 -77.668 -10.5 -107.001s-18 -53.5 -33 -72.5s-34.333 -32.833 -58 -41.5s-52.5 -13 -86.5 -13h-36v-279h-114v750h150c32.667 0 61 -4 85 -12s43.5 -21.167 58.5 -39.5s26.167 -42.666 33.5 -72.999s11 -67.833 11 -112.5zM531 367.999v-249.001
c0 -18.667 8.66699 -28 26 -28c2.66699 0 5.33398 0.333008 8.00098 1s5.66699 1.33398 9 2.00098l2 -93c-4 -2.66699 -10.5 -5 -19.5 -7s-18.167 -3 -27.5 -3c-32.667 0 -57.334 10.833 -74.001 32.5s-25 53.167 -25 94.5v250h-24v91h29l17 98l79 10v-108h51v-91h-51z
M807 136.998c0 -99.333 -40.9961 -149.001 -122.996 -149.001c-13.333 0 -27 1.83301 -41 5.5s-25.667 8.83398 -35 15.501l4 102c19.333 -12 41 -18 65 -18c14 0 24 3.66699 30 11s9 17.333 9 30c0 10.667 -2.83301 19.334 -8.5 26.001s-12.834 13 -21.501 19l-28 19.5
c-10 7 -19.333 15.667 -28 26s-15.834 23.333 -21.501 39s-8.5 35.5 -8.5 59.5c0 18 2.5 35.5 7.5 52.5s12.333 32 22 45s22 23.5 37 31.5s32.5 12 52.5 12c15.333 0 29.166 -1.83301 41.499 -5.5s22.833 -8.5 31.5 -14.5l-7 -99c-18.667 9.33301 -38.334 14 -59.001 14
c-21.333 0 -32 -11.333 -32 -34c0 -10 2.83301 -18.167 8.5 -24.5s12.667 -12.5 21 -18.5l27 -19c9.66699 -6.66699 18.667 -15.334 27 -26.001s15.333 -24 21 -40s8.5 -36 8.5 -60zM269.004 511.997c0 24 -1.00098 43.332 -3.00098 57.999s-5.5 26.334 -10.5 35.001
s-12 14.5 -21 17.5s-20.167 4.5 -33.5 4.5h-37v-231h37c12 0 22.333 1.33301 31 4s15.834 8.16699 21.501 16.5s9.66699 20 12 35s3.5 35.167 3.5 60.5z" />
    <glyph glyph-name="trademark" unicode="&#x2122;" horiz-adv-x="692" 
d="M578 471v102l2 81l-3 1l-26 -77l-39 -107h-66l-40 105l-27 77l-2 -1l1 -81v-100h-79v288h116l39 -106l26 -76h3l25 76l39 106h112v-288h-81zM191 678v-207h-94v207h-77v81h248v-81h-77z" />
    <glyph glyph-name="Omega" unicode="&#x2126;" horiz-adv-x="745" 
d="M373 761c50 0 95.165 -6.33398 135.498 -19.001s74.5 -32 102.5 -58s49.5 -59.167 64.5 -99.5s22.5 -88.166 22.5 -143.499c0 -62.667 -12.667 -119.667 -38 -171s-63.333 -95.333 -114 -132v-3h155v-135h-299v195c17.333 14 33.333 29 48 45s27.334 33.667 38.001 53
s19 40.666 25 63.999s9 49 9 77c0 65.333 -12.333 111.333 -37 138s-62 40 -112 40c-50.667 0 -88.167 -13.333 -112.5 -40s-36.5 -72.667 -36.5 -138c0 -28 3 -53.667 9 -77s14.333 -44.5 25 -63.5s23.334 -36.667 38.001 -53s30.667 -31.5 48 -45.5v-195h-299v135h154l1 3
c-51.333 36 -89.5 79.333 -114.5 130s-37.5 108.334 -37.5 173.001c0 54 7.5 101 22.5 141s36.5 73.333 64.5 100s62.167 46.5 102.5 59.5s85.5 19.5 135.5 19.5z" />
    <glyph glyph-name="onethird" unicode="&#x2153;" horiz-adv-x="893" 
d="M734 750l-498 -750h-109l497 750h110zM837 118c0 -38.667 -13.668 -68.8359 -41.001 -90.5029s-71 -32.5 -131 -32.5c-28 0 -54 3 -78 9s-44.667 14 -62 24l23 81c17.333 -9.33301 35.666 -16.5 54.999 -21.5s39.666 -7.5 60.999 -7.5c45.333 0 68 14.667 68 44
c0 6.66699 -1.33301 12.5 -4 17.5s-8 9.33301 -16 13s-19.167 6.5 -33.5 8.5s-32.833 3 -55.5 3v73c22 0 39.667 0.833008 53 2.5s23.833 4.33398 31.5 8.00098s12.834 8 15.501 13s4 10.5 4 16.5c0 10 -4.83301 18 -14.5 24s-25.5 9 -47.5 9
c-23.333 0 -44.166 -2.66699 -62.499 -8s-36.166 -13.666 -53.499 -24.999l-25 79c18.667 12.667 40.5 22.667 65.5 30s51.5 11 79.5 11c51.333 0 90.833 -9.83301 118.5 -29.5s41.5 -47.167 41.5 -82.5c0 -20 -5 -36.667 -15 -50s-24 -23.666 -42 -30.999v-3
c20.667 -7.33301 36.667 -17.833 48 -31.5s17 -31.5 17 -53.5zM283.999 355.998h-108v270l-79 -44l-9 88l128 81h68v-395z" />
    <glyph glyph-name="twothirds" unicode="&#x2154;" horiz-adv-x="893" 
d="M349 633c0 -18.667 -3.83203 -35.834 -11.499 -51.501s-18.5 -30.667 -32.5 -45s-30.833 -28.666 -50.5 -42.999l-65.5 -45.5v-3h159l-2 -89h-298v69l74.5 63.5c23 19 42.833 36.333 59.5 52s29.667 30.167 39 43.5s14 26.333 14 39c0 12 -4.66699 21.833 -14 29.5
s-25 11.5 -47 11.5c-19.333 0 -37.5 -3.16699 -54.5 -9.5s-34.5 -14.833 -52.5 -25.5l-25 85c20 12.667 42.667 22.667 68 30s53.666 11 84.999 11c52.667 0 91.5 -11.333 116.5 -34s37.5 -52 37.5 -88zM753.001 750l-498 -750h-109l497 750h110zM849.001 118
c0 -38.667 -13.668 -68.8359 -41.001 -90.5029s-71 -32.5 -131 -32.5c-28 0 -54 3 -78 9s-44.667 14 -62 24l23 81c17.333 -9.33301 35.666 -16.5 54.999 -21.5s39.666 -7.5 60.999 -7.5c45.333 0 68 14.667 68 44c0 6.66699 -1.33301 12.5 -4 17.5s-8 9.33301 -16 13
s-19.167 6.5 -33.5 8.5s-32.833 3 -55.5 3v73c22 0 39.667 0.833008 53 2.5s23.833 4.33398 31.5 8.00098s12.834 8 15.501 13s4 10.5 4 16.5c0 10 -4.83301 18 -14.5 24s-25.5 9 -47.5 9c-23.333 0 -44.166 -2.66699 -62.499 -8s-36.166 -13.666 -53.499 -24.999l-25 79
c18.667 12.667 40.5 22.667 65.5 30s51.5 11 79.5 11c51.333 0 90.833 -9.83301 118.5 -29.5s41.5 -47.167 41.5 -82.5c0 -20 -5 -36.667 -15 -50s-24 -23.666 -42 -30.999v-3c20.667 -7.33301 36.667 -17.833 48 -31.5s17 -31.5 17 -53.5z" />
    <glyph glyph-name="oneeighth" unicode="&#x215b;" horiz-adv-x="893" 
d="M286 356h-108v270l-79 -44l-9 88l128 81h68v-395zM728 750l-498 -750h-109l497 750h110zM494 118c0 17.333 4.66602 33.499 13.999 48.499s23 28.167 41 39.5c-11.333 9.33301 -20.5 20.833 -27.5 34.5s-10.5 30.5 -10.5 50.5c0 34 12 60.667 36 80s62.667 29 116 29
c54 0 92.833 -10 116.5 -30s35.5 -46.333 35.5 -79c0 -17.333 -3.66699 -32.666 -11 -45.999s-17 -24.666 -29 -33.999c16 -8.66699 29.333 -20.334 40 -35.001s16 -34 16 -58c0 -40 -13.667 -70.5 -41 -91.5s-69.666 -31.5 -126.999 -31.5
c-58.667 0 -101.5 10.5 -128.5 31.5s-40.5 51.5 -40.5 91.5zM723.999 110.999c0 8 -2.5 14.5 -7.5 19.5s-11.667 9.5 -20 13.5s-17.833 7.66699 -28.5 11l-34 11c-10 -6 -18.333 -13.167 -25 -21.5s-10 -17.5 -10 -27.5c0 -15.333 5.33301 -26.166 16 -32.499
s27.667 -9.5 51 -9.5c17.333 0 31.333 2.66699 42 8s16 14.666 16 27.999zM612.999 285.999c0 -13.333 7.49805 -23.001 22.498 -29.001s33.167 -11.667 54.5 -17c8.66699 6 15.334 12.167 20.001 18.5s7 13.833 7 22.5c0 12.667 -4.16699 22.334 -12.5 29.001
s-22.166 10 -41.499 10c-33.333 0 -50 -11.333 -50 -34z" />
    <glyph glyph-name="threeeighths" unicode="&#x215c;" horiz-adv-x="893" 
d="M365 474c0 -38.667 -13.666 -68.999 -40.999 -90.999s-71.333 -33 -132 -33c-28 0 -53.833 3.16699 -77.5 9.5s-44.167 14.5 -61.5 24.5l23 80c17.333 -9.33301 35.666 -16.5 54.999 -21.5s39.666 -7.5 60.999 -7.5c22.667 0 39.667 4 51 12s17 18.667 17 32
c0 6.66699 -1.5 12.667 -4.5 18s-8.5 9.83301 -16.5 13.5s-19.167 6.5 -33.5 8.5s-32.833 3 -55.5 3v72c22 0 39.833 1 53.5 3s24.334 4.66699 32.001 8s12.834 7.66602 15.501 12.999s4 11 4 17c0 10 -4.83301 18 -14.5 24s-25.834 9 -48.501 9c-44 0 -82.333 -11 -115 -33
l-25 79c18 12.667 39.667 22.667 65 30s52 11 80 11c50.667 0 89.834 -10 117.501 -30s41.5 -47.333 41.5 -82c0 -19.333 -5 -35.833 -15 -49.5s-24 -24.5 -42 -32.5v-2c21.333 -7.33301 37.666 -17.833 48.999 -31.5s17 -31.5 17 -53.5zM748.001 750.001l-498 -750h-109
l497 750h110zM510.001 118.001c0 17.333 4.66602 33.499 13.999 48.499s23 28.167 41 39.5c-11.333 9.33301 -20.5 20.833 -27.5 34.5s-10.5 30.5 -10.5 50.5c0 34 12 60.667 36 80s62.667 29 116 29c54 0 92.833 -10 116.5 -30s35.5 -46.333 35.5 -79
c0 -17.333 -3.66699 -32.666 -11 -45.999s-17 -24.666 -29 -33.999c16 -8.66699 29.333 -20.334 40 -35.001s16 -34 16 -58c0 -40 -13.667 -70.5 -41 -91.5s-69.666 -31.5 -126.999 -31.5c-58.667 0 -101.5 10.5 -128.5 31.5s-40.5 51.5 -40.5 91.5zM740 111
c0 8 -2.5 14.5 -7.5 19.5s-11.667 9.5 -20 13.5s-17.833 7.66699 -28.5 11l-34 11c-10 -6 -18.333 -13.167 -25 -21.5s-10 -17.5 -10 -27.5c0 -15.333 5.33301 -26.166 16 -32.499s27.667 -9.5 51 -9.5c17.333 0 31.333 2.66699 42 8s16 14.666 16 27.999zM629 286
c0 -13.333 7.49805 -23.001 22.498 -29.001s33.167 -11.667 54.5 -17c8.66699 6 15.334 12.167 20.001 18.5s7 13.833 7 22.5c0 12.667 -4.16699 22.334 -12.5 29.001s-22.166 10 -41.499 10c-33.333 0 -50 -11.333 -50 -34z" />
    <glyph glyph-name="fiveeighths" unicode="&#x215d;" horiz-adv-x="893" 
d="M380 492c0 -42.667 -12.6689 -76.833 -38.002 -102.5s-67.666 -38.5 -126.999 -38.5c-25.333 0 -50.166 2 -74.499 6s-47.166 11.333 -68.499 22l17 82c20 -8.66699 38.833 -15 56.5 -19s38.167 -6 61.5 -6c25.333 0 42.833 4 52.5 12s14.5 20 14.5 36
c0 26.667 -22 40 -66 40c-15.333 0 -31 -0.833008 -47 -2.5s-30 -4.16699 -42 -7.5l-41 36l20 200h258l3 -91h-177l-5 -55c9.33301 1.33301 18.666 2.33301 27.999 3s19.333 1 30 1c46 0 81.667 -9.83301 107 -29.5s38 -48.5 38 -86.5zM741.998 750.001l-498 -750h-109
l497 750h110zM506.998 118.001c0 17.333 4.66602 33.499 13.999 48.499s23 28.167 41 39.5c-11.333 9.33301 -20.5 20.833 -27.5 34.5s-10.5 30.5 -10.5 50.5c0 34 12 60.667 36 80s62.667 29 116 29c54 0 92.833 -10 116.5 -30s35.5 -46.333 35.5 -79
c0 -17.333 -3.66699 -32.666 -11 -45.999s-17 -24.666 -29 -33.999c16 -8.66699 29.333 -20.334 40 -35.001s16 -34 16 -58c0 -40 -13.667 -70.5 -41 -91.5s-69.666 -31.5 -126.999 -31.5c-58.667 0 -101.5 10.5 -128.5 31.5s-40.5 51.5 -40.5 91.5zM736.997 111
c0 8 -2.5 14.5 -7.5 19.5s-11.667 9.5 -20 13.5s-17.833 7.66699 -28.5 11l-34 11c-10 -6 -18.333 -13.167 -25 -21.5s-10 -17.5 -10 -27.5c0 -15.333 5.33301 -26.166 16 -32.499s27.667 -9.5 51 -9.5c17.333 0 31.333 2.66699 42 8s16 14.666 16 27.999zM625.997 286
c0 -13.333 7.49805 -23.001 22.498 -29.001s33.167 -11.667 54.5 -17c8.66699 6 15.334 12.167 20.001 18.5s7 13.833 7 22.5c0 12.667 -4.16699 22.334 -12.5 29.001s-22.166 10 -41.499 10c-33.333 0 -50 -11.333 -50 -34z" />
    <glyph glyph-name="seveneighths" unicode="&#x215e;" horiz-adv-x="893" 
d="M419 658l-161 -302h-126l131 227l42 67l-2 2h-215l5 97h326v-91zM731 750l-498 -750h-109l497 750h110zM496 118c0 17.333 4.66602 33.499 13.999 48.499s23 28.167 41 39.5c-11.333 9.33301 -20.5 20.833 -27.5 34.5s-10.5 30.5 -10.5 50.5c0 34 12 60.667 36 80
s62.667 29 116 29c54 0 92.833 -10 116.5 -30s35.5 -46.333 35.5 -79c0 -17.333 -3.66699 -32.666 -11 -45.999s-17 -24.666 -29 -33.999c16 -8.66699 29.333 -20.334 40 -35.001s16 -34 16 -58c0 -40 -13.667 -70.5 -41 -91.5s-69.666 -31.5 -126.999 -31.5
c-58.667 0 -101.5 10.5 -128.5 31.5s-40.5 51.5 -40.5 91.5zM725.999 110.999c0 8 -2.5 14.5 -7.5 19.5s-11.667 9.5 -20 13.5s-17.833 7.66699 -28.5 11l-34 11c-10 -6 -18.333 -13.167 -25 -21.5s-10 -17.5 -10 -27.5c0 -15.333 5.33301 -26.166 16 -32.499
s27.667 -9.5 51 -9.5c17.333 0 31.333 2.66699 42 8s16 14.666 16 27.999zM614.999 285.999c0 -13.333 7.49805 -23.001 22.498 -29.001s33.167 -11.667 54.5 -17c8.66699 6 15.334 12.167 20.001 18.5s7 13.833 7 22.5c0 12.667 -4.16699 22.334 -12.5 29.001
s-22.166 10 -41.499 10c-33.333 0 -50 -11.333 -50 -34z" />
    <glyph glyph-name="partialdiff" unicode="&#x2202;" horiz-adv-x="640" 
d="M315 546c25.333 0 49.1621 -3.66992 71.4951 -11.0029s42.833 -17.666 61.5 -30.999l2 2c-9.33301 40.667 -27.166 70.834 -53.499 90.501s-62.833 29.5 -109.5 29.5c-38 0 -71.167 -4.33301 -99.5 -13s-56.166 -21.667 -83.499 -39l-39 108
c16.667 12 33.834 22.5 51.501 31.5s36.334 16.833 56.001 23.5s41.167 11.667 64.5 15s49 5 77 5c34.667 0 69.334 -6 104.001 -18s66 -31.833 94 -59.5s50.667 -63.834 68 -108.501s26 -99.667 26 -165c0 -61.333 -7 -117.666 -21 -168.999s-35 -95.666 -63 -132.999
s-62.833 -66.333 -104.5 -87s-90.167 -31 -145.5 -31c-80.667 0 -140.334 21.167 -179.001 63.5s-58 102.833 -58 181.5c0 50 6.5 94.5 19.5 133.5s31.667 72 56 99s53.833 47.5 88.5 61.5s73.334 21 116.001 21zM439.996 341.997c0 10.667 -2.16602 21.165 -6.49902 31.498
s-10.666 19.5 -18.999 27.5s-19 14.333 -32 19s-27.833 7 -44.5 7c-44 0 -79 -17.167 -105 -51.5s-39 -87.166 -39 -158.499c0 -36 8.66699 -63 26 -81s42.666 -27 75.999 -27c22.667 0 43 5.83301 61 17.5s33.167 27.834 45.5 48.501s21.666 45.167 27.999 73.5
s9.5 59.5 9.5 93.5z" />
    <glyph glyph-name="Delta" unicode="&#x2206;" horiz-adv-x="742" 
d="M713 0h-685l287 753h111zM343 478l-124 -342h298l-120 342l-25 77h-3z" />
    <glyph glyph-name="product" unicode="&#x220f;" horiz-adv-x="753" 
d="M135 -159v792l-90 9l-3 108h670l-2 -107l-90 -10v-792h-146v781h-192v-781h-147z" />
    <glyph glyph-name="uni2215" unicode="&#x2215;" horiz-adv-x="306" 
d="M478 750l-498 -750h-109l497 750h110z" />
    <glyph glyph-name="lessequal" unicode="&#x2264;" 
d="M279 434l-79 -17v-3l79 -17l270 -64v-146l-462 154v152l461 156v-149zM90 34v125h459v-125h-459z" />
    <glyph glyph-name="greaterequal" unicode="&#x2265;" 
d="M87 333l270 64l80 17v3l-80 17l-270 66l1 149l461 -156v-152l-462 -154v146zM87 34v125h458v-125h-458z" />
    <glyph glyph-name="lozenge" unicode="&#x25ca;" horiz-adv-x="626" 
d="M312 681l290 -339l-290 -338l-289 338zM312 195l128 148l-128 149l-128 -149z" />
    <glyph glyph-name="fi" unicode="&#xfb01;" horiz-adv-x="711" 
d="M253 0l-154.999 -0.000976562v491h-76v115h76v26c0 22.667 4 44.167 12 64.5s20.5 38 37.5 53s38.667 26.833 65 35.5s57.5 13 93.5 13c17.333 0 33.666 -0.833008 48.999 -2.5s28.333 -4.16699 39 -7.5l-4 -102c-16.667 3.33301 -33.667 5 -51 5
c-32 0 -54.333 -5.66699 -67 -17s-19 -26.666 -19 -45.999v-22h376v-606h-158v491h-218v-491zM640.001 737.999c0 -22.667 -7 -39.5 -21 -50.5s-36.667 -16.5 -68 -16.5c-30 0 -52.167 5 -66.5 15s-21.5 27.333 -21.5 52c0 44.667 29.333 67 88 67
c31.333 0 54 -5.83301 68 -17.5s21 -28.167 21 -49.5z" />
    <glyph glyph-name="fl" unicode="&#xfb02;" horiz-adv-x="678" 
d="M447 0l-0.000976562 688.998c-14.667 2 -28.834 3.66699 -42.501 5s-27.167 2 -40.5 2c-21.333 0 -39.166 -1.66699 -53.499 -5s-25.833 -8.16602 -34.5 -14.499s-14.667 -14 -18 -23s-5 -19.167 -5 -30.5v-17h98v-115h-98v-491h-155v491h-76v115h76v23
c0 23.333 4.33301 45.333 13 66s23.334 38.834 44.001 54.501s48 28.167 82 37.5s76.667 14 128 14c22 0 42.667 -0.833008 62 -2.5s38.333 -3.5 57 -5.5s37.667 -4.16699 57 -6.5s40.333 -3.83301 63 -4.5v-782h-157z" />
    <glyph glyph-name=".null" horiz-adv-x="0" 
 />
    <glyph glyph-name="nonmarkingreturn" horiz-adv-x="500" 
 />
    <glyph glyph-name="exclamdown" horiz-adv-x="302" 
d="M215 439l18 -572h-164l19 572h127zM62 582c0 24 6.83301 42.833 20.5 56.5s35.834 20.5 66.501 20.5c30 0 52 -5.83301 66 -17.5s21 -31.5 21 -59.5c0 -25.333 -7 -44.833 -21 -58.5s-36 -20.5 -66 -20.5c-30.667 0 -52.834 6.83301 -66.501 20.5
s-20.5 33.167 -20.5 58.5z" />
    <glyph glyph-name="cent" horiz-adv-x="503" 
d="M453 458c-15.333 5.33301 -32.001 9.83496 -50.001 13.502s-35.667 5.5 -53 5.5c-28 0 -51.667 -3.16699 -71 -9.5s-34.833 -16.333 -46.5 -30s-20 -31.667 -25 -54s-7.5 -49.5 -7.5 -81.5c0 -65.333 12.667 -111.833 38 -139.5s61.666 -41.5 108.999 -41.5
c40.667 0 77.334 7.66699 110.001 23l11 -121c-27.333 -17.333 -63.666 -28 -108.999 -32l-8 -119h-121l8 123c-66 13.333 -115.667 45 -149 95s-50 120.667 -50 212s18 163.666 54 216.999s93.667 84.666 173 93.999l9 117h120l-10 -120c30 -5.33301 55.667 -12 77 -20z
" />
    <glyph glyph-name="sterling" horiz-adv-x="625" 
d="M46 433l47.999 -0.000976562c-5.33301 16.667 -10 33.334 -14 50.001s-6 34.667 -6 54c0 29.333 5 57.666 15 84.999s26.667 51.5 50 72.5s54.166 37.667 92.499 50s85.833 18.5 142.5 18.5c39.333 0 74.333 -3 105 -9s58.334 -13.667 83.001 -23l-20 -142
c-20.667 7.33301 -44 13.5 -70 18.5s-52.667 7.5 -80 7.5c-53.333 0 -91 -9.16699 -113 -27.5s-33 -41.5 -33 -69.5c0 -15.333 1.33301 -29.833 4 -43.5s6.33398 -27.5 11.001 -41.5h250v-124h-220c2 -13.333 3 -27.333 3 -42c0 -29.333 -5.66699 -54.833 -17 -76.5
s-27.333 -39.167 -48 -52.5l2 -3c28.667 7.33301 58.5 12.333 89.5 15s62.833 4 95.5 4s63.5 -1 92.5 -3s57.5 -5 85.5 -9c0 -1.33301 -0.333008 -9.5 -1 -24.5s-1.33398 -31.5 -2.00098 -49.5s-1.5 -34.667 -2.5 -50s-1.83301 -23.666 -2.5 -24.999
c-42.667 4.66699 -84.167 8.16699 -124.5 10.5s-81.833 3.5 -124.5 3.5c-24 0 -47.5 -0.166992 -70.5 -0.5s-46 -1 -69 -2s-46.833 -2.16699 -71.5 -3.5s-51 -3.33301 -79 -6l-7 146c14.667 2.66699 27.834 7.83398 39.501 15.501s21.5 16.667 29.5 27s14 22 18 35
s6 26.167 6 39.5c0 9.33301 -0.333008 18.166 -1 26.499s-1.66699 16.5 -3 24.5h-76z" />
    <glyph glyph-name="twosuperior" horiz-adv-x="373" 
d="M341 767c0 -18.667 -3.83203 -35.833 -11.499 -51.5s-18.5 -30.667 -32.5 -45s-30.833 -28.666 -50.5 -42.999l-65.5 -45.5v-3h159l-2 -89h-298v69l74.5 63.5c23 19 42.833 36.333 59.5 52s29.667 30.167 39 43.5s14 26.666 14 39.999c0 11.333 -4.66699 20.833 -14 28.5
s-25 11.5 -47 11.5c-19.333 0 -37.5 -3 -54.5 -9s-34.5 -14.667 -52.5 -26l-25 85c20 13.333 42.667 23.5 68 30.5s53.666 10.5 84.999 10.5c52.667 0 91.5 -11.333 116.5 -34s37.5 -52 37.5 -88z" />
    <glyph glyph-name="threesuperior" horiz-adv-x="373" 
d="M345 608c0 -38.667 -13.666 -68.834 -40.999 -90.501s-71.333 -32.5 -132 -32.5c-28 0 -53.833 3 -77.5 9s-44.167 14 -61.5 24l23 80c17.333 -9.33301 35.666 -16.5 54.999 -21.5s39.666 -7.5 60.999 -7.5c22.667 0 39.667 4 51 12s17 18.667 17 32
c0 6.66699 -1.5 12.667 -4.5 18s-8.5 9.83301 -16.5 13.5s-19.167 6.5 -33.5 8.5s-32.833 3 -55.5 3v73c22 0 39.833 0.833008 53.5 2.5s24.334 4.33398 32.001 8.00098s12.834 8 15.501 13s4 10.5 4 16.5c0 10 -4.83301 18 -14.5 24s-25.834 9 -48.501 9
c-44 0 -82.333 -11 -115 -33l-25 79c18 12.667 39.667 22.667 65 30s52 11 80 11c50.667 0 89.834 -9.83301 117.501 -29.5s41.5 -47.167 41.5 -82.5c0 -19.333 -5 -35.833 -15 -49.5s-24 -24.5 -42 -32.5v-2c21.333 -7.33301 37.666 -17.833 48.999 -31.5
s17 -31.5 17 -53.5z" />
    <glyph glyph-name="onesuperior" horiz-adv-x="285" 
d="M230 490h-108v270l-79 -44l-9 88l128 81h68v-395z" />
    <glyph glyph-name="ordmasculine" horiz-adv-x="487" 
d="M451 577c0 -44.667 -4 -82.5 -12 -113.5s-20.5 -56.333 -37.5 -76s-38.5 -34 -64.5 -43s-57 -13.5 -93 -13.5s-67 4.5 -93 13.5s-47.5 23.333 -64.5 43s-29.667 45 -38 76s-12.5 68.833 -12.5 113.5c0 88.667 16.833 152.167 50.5 190.5s86.167 57.5 157.5 57.5
c36 0 67.167 -4.5 93.5 -13.5s47.833 -23.5 64.5 -43.5s29 -45.667 37 -77s12 -69.333 12 -114zM172 577c0 -28 1.33301 -50.833 4 -68.5s6.83398 -31.5 12.501 -41.5s13 -16.833 22 -20.5s20.167 -5.5 33.5 -5.5c12.667 0 23.667 1.83301 33 5.5s16.833 10.5 22.5 20.5
s9.83398 23.833 12.501 41.5s4 40.5 4 68.5s-1.33301 51 -4 69s-6.83398 32 -12.501 42s-13.167 16.833 -22.5 20.5s-20.333 5.5 -33 5.5c-13.333 0 -24.5 -1.83301 -33.5 -5.5s-16.333 -10.5 -22 -20.5s-9.83398 -24 -12.501 -42s-4 -41 -4 -69z" />
    <glyph glyph-name="onehalf" horiz-adv-x="893" 
d="M740 750l-498 -750h-109l497 750h110zM842 277c0 -18 -3.83203 -34.832 -11.499 -50.499s-18.5 -30.834 -32.5 -45.501s-30.833 -29.167 -50.5 -43.5l-65.5 -45.5v-3h159l-2 -89h-298v70l74.5 63c23 18.667 42.833 35.834 59.5 51.501s29.667 30.167 39 43.5
s14 26.666 14 39.999c0 11.333 -4.66699 20.833 -14 28.5s-25 11.5 -47 11.5c-19.333 0 -37.5 -3 -54.5 -9s-34.5 -14.333 -52.5 -25l-25 84c20 13.333 42.667 23.5 68 30.5s53.666 10.5 84.999 10.5c52.667 0 91.5 -11.333 116.5 -34s37.5 -52 37.5 -88zM297.001 356.001
h-108v270l-79 -44l-9 88l128 81h68v-395z" />
    <glyph glyph-name="Thorn" horiz-adv-x="635" 
d="M600 304c0 -53.333 -5.5 -99.667 -16.5 -139s-26.667 -72 -47 -98s-44.833 -45.333 -73.5 -58s-61 -19 -97 -19c-26.667 0 -52 3.33301 -76 10s-46 18.667 -66 36l-3 -1l2 -81v-108h-156v932l156 8v-145l-2 -80l3 -2c20 18 43.167 32.167 69.5 42.5
s54.833 15.5 85.5 15.5c34.667 0 65.667 -5.5 93 -16.5s50.5 -28.667 69.5 -53s33.5 -56.5 43.5 -96.5s15 -89 15 -147zM438 304.999c0 34.667 -2.16797 63.333 -6.50098 86s-11 40.5 -20 53.5s-20.333 22 -34 27s-30.167 7.5 -49.5 7.5
c-23.333 0 -43.833 -4.33301 -61.5 -13s-32.167 -20.667 -43.5 -36v-260c9.33301 -14.667 22.333 -27 39 -37s37.334 -15 62.001 -15c17.333 0 33 2.5 47 7.5s26 14.333 36 28s17.667 32.667 23 57s8 55.833 8 94.5z" />
    <glyph glyph-name="germandbls" horiz-adv-x="657" 
d="M67 489c0 182.667 85.666 274 256.999 274c32.667 0 62.167 -4.5 88.5 -13.5s48.833 -21.167 67.5 -36.5s33.167 -33.333 43.5 -54s15.5 -43 15.5 -67c0 -21.333 -4.83301 -40.166 -14.5 -56.499s-20.167 -30.833 -31.5 -43.5s-21.833 -23.834 -31.5 -33.501
s-14.5 -18.834 -14.5 -27.501c0 -6.66699 4.5 -13.167 13.5 -19.5s20.167 -13.666 33.5 -21.999l43.5 -28c15.667 -10.333 30.167 -23 43.5 -38s24.5 -32.333 33.5 -52s13.5 -42.834 13.5 -69.501c0 -32.667 -5.66699 -62 -17 -88s-27.333 -48.167 -48 -66.5
s-45.667 -32.333 -75 -42s-61.666 -14.5 -96.999 -14.5c-23.333 0 -48.166 2.5 -74.499 7.5s-48.5 13.167 -66.5 24.5l9 131c11.333 -7.33301 26.666 -13.5 45.999 -18.5s39 -7.5 59 -7.5c30 0 55.167 5.33301 75.5 16s30.5 28.667 30.5 54c0 15.333 -4.66699 29 -14 41
s-21 23.333 -35 34s-29.333 20.667 -46 30s-32 19.333 -46 30s-25.667 22.334 -35 35.001s-14 27 -14 43c0 18 5.66699 34.667 17 50s24 30 38 44s26.667 27.667 38 41s17 27 17 41s-6.16699 25.333 -18.5 34s-29.5 13 -51.5 13c-34 0 -58.833 -10 -74.5 -30
s-23.5 -53.667 -23.5 -101v-503h-155v489z" />
    <glyph glyph-name="agrave" horiz-adv-x="581" 
d="M394 58l-3.00098 1.00098c-18.667 -22 -42 -39 -70 -51s-59.333 -18 -94 -18c-57.333 0 -103 16.5 -137 49.5s-51 83.5 -51 151.5c0 28 4.83301 53.667 14.5 77s23.667 43.166 42 59.499s40.833 29.166 67.5 38.499s57.334 14 92.001 14c22.667 0 43.667 -1.5 63 -4.5
s37 -7.16699 53 -12.5v35c0 30.667 -8.66699 53.167 -26 67.5s-47 21.5 -89 21.5c-33.333 0 -62.5 -2.66699 -87.5 -8s-51.5 -13.666 -79.5 -24.999l-13 124c30.667 13.333 63.167 23.333 97.5 30s71.166 10 110.499 10c44.667 0 82.334 -4.83301 113.001 -14.5
s55.5 -24.5 74.5 -44.5s32.667 -45.333 41 -76s12.5 -66.667 12.5 -108v-375h-119zM370.999 260.001c-7.33301 3.33301 -18.332 6.33203 -32.999 8.99902s-32.334 4 -53.001 4c-67.333 0 -101 -26.667 -101 -80c0 -30 8 -50.833 24 -62.5s36.667 -17.5 62 -17.5
c13.333 0 26 1.83301 38 5.5s22.667 8.83398 32 15.501s16.833 14.167 22.5 22.5s8.5 17.5 8.5 27.5v76zM245 656l-120 145h177l60 -145h-117z" />
    <glyph glyph-name="aacute" horiz-adv-x="581" 
d="M394 58l-3.00098 1.00098c-18.667 -22 -42 -39 -70 -51s-59.333 -18 -94 -18c-57.333 0 -103 16.5 -137 49.5s-51 83.5 -51 151.5c0 28 4.83301 53.667 14.5 77s23.667 43.166 42 59.499s40.833 29.166 67.5 38.499s57.334 14 92.001 14c22.667 0 43.667 -1.5 63 -4.5
s37 -7.16699 53 -12.5v35c0 30.667 -8.66699 53.167 -26 67.5s-47 21.5 -89 21.5c-33.333 0 -62.5 -2.66699 -87.5 -8s-51.5 -13.666 -79.5 -24.999l-13 124c30.667 13.333 63.167 23.333 97.5 30s71.166 10 110.499 10c44.667 0 82.334 -4.83301 113.001 -14.5
s55.5 -24.5 74.5 -44.5s32.667 -45.333 41 -76s12.5 -66.667 12.5 -108v-375h-119zM370.999 260.001c-7.33301 3.33301 -18.332 6.33203 -32.999 8.99902s-32.334 4 -53.001 4c-67.333 0 -101 -26.667 -101 -80c0 -30 8 -50.833 24 -62.5s36.667 -17.5 62 -17.5
c13.333 0 26 1.83301 38 5.5s22.667 8.83398 32 15.501s16.833 14.167 22.5 22.5s8.5 17.5 8.5 27.5v76zM443 801l-120 -145h-117l59 145h178z" />
    <glyph glyph-name="adieresis" horiz-adv-x="581" 
d="M394 58l-3.00098 1.00098c-18.667 -22 -42 -39 -70 -51s-59.333 -18 -94 -18c-57.333 0 -103 16.5 -137 49.5s-51 83.5 -51 151.5c0 28 4.83301 53.667 14.5 77s23.667 43.166 42 59.499s40.833 29.166 67.5 38.499s57.334 14 92.001 14c22.667 0 43.667 -1.5 63 -4.5
s37 -7.16699 53 -12.5v35c0 30.667 -8.66699 53.167 -26 67.5s-47 21.5 -89 21.5c-33.333 0 -62.5 -2.66699 -87.5 -8s-51.5 -13.666 -79.5 -24.999l-13 124c30.667 13.333 63.167 23.333 97.5 30s71.166 10 110.499 10c44.667 0 82.334 -4.83301 113.001 -14.5
s55.5 -24.5 74.5 -44.5s32.667 -45.333 41 -76s12.5 -66.667 12.5 -108v-375h-119zM370.999 260.001c-7.33301 3.33301 -18.332 6.33203 -32.999 8.99902s-32.334 4 -53.001 4c-67.333 0 -101 -26.667 -101 -80c0 -30 8 -50.833 24 -62.5s36.667 -17.5 62 -17.5
c13.333 0 26 1.83301 38 5.5s22.667 8.83398 32 15.501s16.833 14.167 22.5 22.5s8.5 17.5 8.5 27.5v76zM266 738c0 -21.333 -5.16699 -37.501 -15.5 -48.501s-27.166 -16.5 -50.499 -16.5c-22 0 -38.333 5 -49 15s-16 26.667 -16 50c0 44 21.667 66 65 66
c23.333 0 40.166 -5.66699 50.499 -17s15.5 -27.666 15.5 -48.999zM448 737.999c0 -21.333 -5 -37.501 -15 -48.501s-26.667 -16.5 -50 -16.5c-22 0 -38.5 5 -49.5 15s-16.5 26.667 -16.5 50c0 44 22 66 66 66c23.333 0 40 -5.66699 50 -17s15 -27.666 15 -48.999z" />
    <glyph glyph-name="eacute" horiz-adv-x="586" 
d="M337 -11c-104.667 0 -181.166 27.1641 -229.499 81.4971s-72.5 134.5 -72.5 240.5c0 96.667 21.667 171.834 65 225.501s110.666 80.5 201.999 80.5c77.333 0 138.333 -23 183 -69s67 -117 67 -213c0 -11.333 -0.333008 -23.666 -1 -36.999s-1.66699 -25.333 -3 -36h-353
c4 -50.667 18.833 -86.5 44.5 -107.5s64.5 -31.5 116.5 -31.5c56 0 110 10 162 30l17 -125c-25.333 -11.333 -55 -20.666 -89 -27.999s-70.333 -11 -109 -11zM410.001 364.997c-1.33301 44.667 -11.332 76.333 -29.999 95s-44.334 28 -77.001 28
c-37.333 0 -64.333 -9.5 -81 -28.5s-26.667 -50.5 -30 -94.5h218zM458.002 800.996l-120 -145h-117l59 145h178z" />
    <glyph glyph-name="iacute" horiz-adv-x="319" 
d="M80 0v602l159 7v-609h-159zM318 801l-120 -145h-117l59 145h178z" />
    <glyph glyph-name="odieresis" horiz-adv-x="624" 
d="M590 301c0 -56 -5.33301 -103.833 -16 -143.5s-27.334 -72.167 -50.001 -97.5s-51.5 -44 -86.5 -56s-76.5 -18 -124.5 -18s-89.5 6 -124.5 18s-63.833 30.667 -86.5 56s-39.5 57.833 -50.5 97.5s-16.5 87.5 -16.5 143.5c0 110.667 22.333 191 67 241s115 75 211 75
c48 0 89.5 -6 124.5 -18s63.833 -30.833 86.5 -56.5s39.334 -58.5 50.001 -98.5s16 -87.667 16 -143zM196 301c0 -37.333 2.16797 -68.167 6.50098 -92.5s11.166 -43.5 20.499 -57.5s21.333 -23.833 36 -29.5s32.667 -8.5 54 -8.5s39.333 2.83301 54 8.5
s26.667 15.667 36 30s16 33.5 20 57.5s6 54.667 6 92c0 36.667 -2 67.167 -6 91.5s-10.667 43.666 -20 57.999s-21.333 24.333 -36 30s-32.667 8.5 -54 8.5s-39.5 -2.83301 -54.5 -8.5s-27.167 -15.667 -36.5 -30s-16 -33.666 -20 -57.999s-6 -54.833 -6 -91.5z
M287.001 737.999c0 -21.333 -5.16699 -37.501 -15.5 -48.501s-27.166 -16.5 -50.499 -16.5c-22 0 -38.333 5 -49 15s-16 26.667 -16 50c0 44 21.667 66 65 66c23.333 0 40.166 -5.66699 50.499 -17s15.5 -27.666 15.5 -48.999zM469.001 737.998
c0 -21.333 -5 -37.501 -15 -48.501s-26.667 -16.5 -50 -16.5c-22 0 -38.5 5 -49.5 15s-16.5 26.667 -16.5 50c0 44 22 66 66 66c23.333 0 40 -5.66699 50 -17s15 -27.666 15 -48.999z" />
    <glyph glyph-name="yacute" horiz-adv-x="653" 
d="M181 -52c21.333 0 39.666 3.83301 54.999 11.5s28 23.167 38 46.5l3 8l-261 592h177l132 -370l26 -76h3l19 78l99 368h165l-208 -601c-22.667 -62 -52 -106.333 -88 -133s-80 -40 -132 -40c-18.667 0 -36.667 1.5 -54 4.5s-33.666 7.83301 -48.999 14.5l12 110
c21.333 -8.66699 42.333 -13 63 -13zM486 801l-120 -145h-117l59 145h178z" />
    <glyph glyph-name="ydieresis" horiz-adv-x="653" 
d="M181 -52c21.333 0 39.666 3.83301 54.999 11.5s28 23.167 38 46.5l3 8l-261 592h177l132 -370l26 -76h3l19 78l99 368h165l-208 -601c-22.667 -62 -52 -106.333 -88 -133s-80 -40 -132 -40c-18.667 0 -36.667 1.5 -54 4.5s-33.666 7.83301 -48.999 14.5l12 110
c21.333 -8.66699 42.333 -13 63 -13zM302 738c0 -21.333 -5.16699 -37.501 -15.5 -48.501s-27.166 -16.5 -50.499 -16.5c-22 0 -38.333 5 -49 15s-16 26.667 -16 50c0 44 21.667 66 65 66c23.333 0 40.166 -5.66699 50.499 -17s15.5 -27.666 15.5 -48.999zM484 737.999
c0 -21.333 -5 -37.501 -15 -48.501s-26.667 -16.5 -50 -16.5c-22 0 -38.5 5 -49.5 15s-16.5 26.667 -16.5 50c0 44 22 66 66 66c23.333 0 40 -5.66699 50 -17s15 -27.666 15 -48.999z" />
    <glyph glyph-name="circumflex" horiz-adv-x="405" 
d="M270 801l100 -145h-115l-52 82l-51 -82h-115l98 145h135z" />
    <glyph glyph-name="tilde" horiz-adv-x="405" 
d="M38 669c1.33301 38.667 11.1689 70.666 29.502 95.999s42.833 38 73.5 38c16.667 0 31.167 -2.66699 43.5 -8s23.5 -11.333 33.5 -18l28 -18c8.66699 -5.33301 18.334 -8 29.001 -8c9.33301 0 16.666 3.66699 21.999 11s9.66602 17.333 12.999 30l71 -1
c-1.33301 -40 -11.5 -72.167 -30.5 -96.5s-43.5 -36.5 -73.5 -36.5c-16.667 0 -31 2.66699 -43 8s-23 11.333 -33 18s-19.5 12.667 -28.5 18s-18.5 8 -28.5 8c-9.33301 0 -16.833 -4.16699 -22.5 -12.5s-9.83398 -18.166 -12.501 -29.499z" />
    <glyph glyph-name="c5e" horiz-adv-x="643" 
 />
    <glyph glyph-name="c00" horiz-adv-x="629" 
d="M62 750h505v-750h-505v750zM473 94v562h-317v-562h317z" />
    </font>
</defs>
</svg>
